# Blender 4.4.0
# www.blender.org
mtllib hana3.mtl
o 円
v 0.000000 0.167878 0.439414
v -0.032679 0.164652 0.441596
v -0.064101 0.155099 0.443694
v -0.093061 0.139585 0.445627
v -0.118444 0.118708 0.447322
v -0.139275 0.093268 0.448713
v -0.154754 0.064244 0.449746
v -0.164286 0.032751 0.450383
v -0.167505 0.000000 0.450598
v -0.164286 -0.032751 0.450383
v -0.154754 -0.064244 0.449746
v -0.139275 -0.093268 0.448713
v -0.118444 -0.118708 0.447322
v -0.093061 -0.139585 0.445627
v -0.064101 -0.155099 0.443694
v -0.032679 -0.164652 0.441596
v -0.000000 -0.167878 0.439414
v 0.032679 -0.164652 0.437232
v 0.064101 -0.155099 0.435134
v 0.093061 -0.139585 0.433201
v 0.118444 -0.118708 0.431506
v 0.139275 -0.093268 0.430115
v 0.154754 -0.064244 0.429082
v 0.164286 -0.032751 0.428446
v 0.167505 0.000000 0.428231
v 0.164286 0.032751 0.428446
v 0.154754 0.064244 0.429082
v 0.139275 0.093268 0.430115
v 0.118444 0.118708 0.431506
v 0.093061 0.139585 0.433201
v 0.064101 0.155099 0.435134
v 0.032679 0.164652 0.437232
v -0.038257 0.164652 0.358041
v -0.005579 0.167878 0.355859
v -0.069680 0.155099 0.360139
v -0.098639 0.139585 0.362072
v -0.124022 0.118708 0.363767
v -0.144854 0.093268 0.365158
v -0.160333 0.064244 0.366191
v -0.169865 0.032751 0.366828
v -0.173083 0.000000 0.367043
v -0.169865 -0.032751 0.366828
v -0.160333 -0.064244 0.366191
v -0.144854 -0.093268 0.365158
v -0.124022 -0.118708 0.363767
v -0.098639 -0.139585 0.362072
v -0.069680 -0.155099 0.360139
v -0.038257 -0.164652 0.358041
v -0.005579 -0.167878 0.355859
v 0.027100 -0.164652 0.353677
v 0.058523 -0.155099 0.351579
v 0.087482 -0.139585 0.349646
v 0.112865 -0.118708 0.347951
v 0.133697 -0.093268 0.346560
v 0.149176 -0.064244 0.345527
v 0.158708 -0.032751 0.344890
v 0.161926 0.000000 0.344675
v 0.158708 0.032751 0.344890
v 0.149176 0.064244 0.345527
v 0.133697 0.093268 0.346560
v 0.112865 0.118708 0.347951
v 0.087482 0.139585 0.349646
v 0.058523 0.155099 0.351579
v 0.027100 0.164652 0.353677
v 0.000690 0.178875 0.449751
v -0.034129 0.175438 0.452076
v -0.067610 0.165259 0.454312
v -0.098467 0.148729 0.456372
v -0.125513 0.126484 0.458177
v -0.147709 0.099378 0.459659
v -0.164202 0.068453 0.460761
v -0.174358 0.034897 0.461439
v -0.177788 -0.000000 0.461668
v -0.174358 -0.034897 0.461439
v -0.164202 -0.068453 0.460761
v -0.147709 -0.099378 0.459659
v -0.125513 -0.126484 0.458177
v -0.098467 -0.148729 0.456372
v -0.067610 -0.165259 0.454312
v -0.034129 -0.175438 0.452076
v 0.000690 -0.178875 0.449751
v 0.035510 -0.175438 0.447427
v 0.068991 -0.165259 0.445191
v 0.099847 -0.148729 0.443131
v 0.126893 -0.126484 0.441325
v 0.149089 -0.099378 0.439844
v 0.165582 -0.068453 0.438742
v 0.175739 -0.034897 0.438064
v 0.179168 -0.000000 0.437835
v 0.175739 0.034897 0.438064
v 0.165582 0.068453 0.438742
v 0.149089 0.099378 0.439844
v 0.126893 0.126484 0.441325
v 0.099847 0.148729 0.443131
v 0.068991 0.165259 0.445191
v 0.035510 0.175438 0.447427
v -0.041088 0.175438 0.347847
v -0.006269 0.178875 0.345522
v -0.074569 0.165259 0.350082
v -0.105426 0.148729 0.352142
v -0.132472 0.126484 0.353948
v -0.154668 0.099378 0.355430
v -0.171161 0.068453 0.356531
v -0.181317 0.034897 0.357209
v -0.184747 0.000000 0.357438
v -0.181317 -0.034897 0.357209
v -0.171161 -0.068453 0.356531
v -0.154668 -0.099378 0.355430
v -0.132472 -0.126484 0.353948
v -0.105426 -0.148729 0.352142
v -0.074569 -0.165259 0.350082
v -0.041088 -0.175438 0.347847
v -0.006269 -0.178875 0.345522
v 0.028551 -0.175438 0.343197
v 0.062032 -0.165259 0.340962
v 0.092888 -0.148729 0.338901
v 0.119934 -0.126484 0.337096
v 0.142130 -0.099378 0.335614
v 0.158623 -0.068453 0.334513
v 0.168780 -0.034897 0.333835
v 0.172209 0.000000 0.333606
v 0.168780 0.034897 0.333835
v 0.158623 0.068453 0.334513
v 0.142130 0.099378 0.335614
v 0.119934 0.126484 0.337096
v 0.092888 0.148729 0.338901
v 0.062032 0.165259 0.340962
v 0.028551 0.175438 0.343197
vn -0.0666 -0.0000 -0.9978
vn 0.0666 -0.0000 0.9978
vn -0.9548 -0.2903 0.0637
vn 0.6330 0.7730 -0.0423
vn -0.8800 -0.4714 0.0588
vn 0.4703 0.8819 -0.0314
vn 0.0978 -0.9952 -0.0065
vn -0.7713 -0.6344 0.0515
vn 0.2896 0.9569 -0.0193
vn 0.2896 -0.9569 -0.0193
vn -0.6330 -0.7730 0.0423
vn 0.0978 0.9952 -0.0065
vn 0.4703 -0.8819 -0.0314
vn -0.4703 -0.8819 0.0314
vn -0.0978 0.9952 0.0065
vn 0.6330 -0.7730 -0.0423
vn -0.2896 -0.9569 0.0193
vn -0.2896 0.9569 0.0193
vn 0.7713 -0.6344 -0.0515
vn -0.0978 -0.9952 0.0065
vn -0.4703 0.8819 0.0314
vn 0.8800 -0.4714 -0.0588
vn -0.6330 0.7730 0.0423
vn 0.9548 -0.2903 -0.0637
vn -0.7713 0.6344 0.0515
vn 0.9930 -0.0980 -0.0663
vn -0.8800 0.4714 0.0588
vn 0.9930 0.0980 -0.0663
vn -0.9548 0.2903 0.0637
vn 0.9548 0.2903 -0.0637
vn -0.9930 0.0980 0.0663
vn 0.8800 0.4714 -0.0588
vn -0.9930 -0.0980 0.0663
vn 0.7713 0.6344 -0.0515
vt 0.000000 0.000000
s 0
usemtl マテリアル.002
f 2/1/1 1/1/1 32/1/1 31/1/1 30/1/1 29/1/1 28/1/1 27/1/1 26/1/1 25/1/1 24/1/1 23/1/1 22/1/1 21/1/1 20/1/1 19/1/1 18/1/1 17/1/1 16/1/1 15/1/1 14/1/1 13/1/1 12/1/1 11/1/1 10/1/1 9/1/1 8/1/1 7/1/1 6/1/1 5/1/1 4/1/1 3/1/1
f 33/1/2 35/1/2 36/1/2 37/1/2 38/1/2 39/1/2 40/1/2 41/1/2 42/1/2 43/1/2 44/1/2 45/1/2 46/1/2 47/1/2 48/1/2 49/1/2 50/1/2 51/1/2 52/1/2 53/1/2 54/1/2 55/1/2 56/1/2 57/1/2 58/1/2 59/1/2 60/1/2 61/1/2 62/1/2 63/1/2 64/1/2 34/1/2
f 26/1/3 27/1/3 59/1/3 58/1/3
f 13/1/4 14/1/4 46/1/4 45/1/4
f 27/1/5 28/1/5 60/1/5 59/1/5
f 14/1/6 15/1/6 47/1/6 46/1/6
f 1/1/7 2/1/7 33/1/7 34/1/7
f 28/1/8 29/1/8 61/1/8 60/1/8
f 15/1/9 16/1/9 48/1/9 47/1/9
f 2/1/10 3/1/10 35/1/10 33/1/10
f 29/1/11 30/1/11 62/1/11 61/1/11
f 16/1/12 17/1/12 49/1/12 48/1/12
f 3/1/13 4/1/13 36/1/13 35/1/13
f 30/1/14 31/1/14 63/1/14 62/1/14
f 17/1/15 18/1/15 50/1/15 49/1/15
f 4/1/16 5/1/16 37/1/16 36/1/16
f 31/1/17 32/1/17 64/1/17 63/1/17
f 18/1/18 19/1/18 51/1/18 50/1/18
f 5/1/19 6/1/19 38/1/19 37/1/19
f 32/1/20 1/1/20 34/1/20 64/1/20
f 19/1/21 20/1/21 52/1/21 51/1/21
f 6/1/22 7/1/22 39/1/22 38/1/22
f 20/1/23 21/1/23 53/1/23 52/1/23
f 7/1/24 8/1/24 40/1/24 39/1/24
f 21/1/25 22/1/25 54/1/25 53/1/25
f 8/1/26 9/1/26 41/1/26 40/1/26
f 22/1/27 23/1/27 55/1/27 54/1/27
f 9/1/28 10/1/28 42/1/28 41/1/28
f 23/1/29 24/1/29 56/1/29 55/1/29
f 10/1/30 11/1/30 43/1/30 42/1/30
f 24/1/31 25/1/31 57/1/31 56/1/31
f 11/1/32 12/1/32 44/1/32 43/1/32
f 25/1/33 26/1/33 58/1/33 57/1/33
f 12/1/34 13/1/34 45/1/34 44/1/34
f 66/1/2 67/1/2 68/1/2 69/1/2 70/1/2 71/1/2 72/1/2 73/1/2 74/1/2 75/1/2 76/1/2 77/1/2 78/1/2 79/1/2 80/1/2 81/1/2 82/1/2 83/1/2 84/1/2 85/1/2 86/1/2 87/1/2 88/1/2 89/1/2 90/1/2 91/1/2 92/1/2 93/1/2 94/1/2 95/1/2 96/1/2 65/1/2
f 97/1/1 98/1/1 128/1/1 127/1/1 126/1/1 125/1/1 124/1/1 123/1/1 122/1/1 121/1/1 120/1/1 119/1/1 118/1/1 117/1/1 116/1/1 115/1/1 114/1/1 113/1/1 112/1/1 111/1/1 110/1/1 109/1/1 108/1/1 107/1/1 106/1/1 105/1/1 104/1/1 103/1/1 102/1/1 101/1/1 100/1/1 99/1/1
f 90/1/30 122/1/30 123/1/30 91/1/30
f 77/1/11 109/1/11 110/1/11 78/1/11
f 91/1/32 123/1/32 124/1/32 92/1/32
f 78/1/14 110/1/14 111/1/14 79/1/14
f 65/1/15 98/1/15 97/1/15 66/1/15
f 92/1/34 124/1/34 125/1/34 93/1/34
f 79/1/17 111/1/17 112/1/17 80/1/17
f 66/1/18 97/1/18 99/1/18 67/1/18
f 93/1/4 125/1/4 126/1/4 94/1/4
f 80/1/20 112/1/20 113/1/20 81/1/20
f 67/1/21 99/1/21 100/1/21 68/1/21
f 94/1/6 126/1/6 127/1/6 95/1/6
f 81/1/7 113/1/7 114/1/7 82/1/7
f 68/1/23 100/1/23 101/1/23 69/1/23
f 95/1/9 127/1/9 128/1/9 96/1/9
f 82/1/10 114/1/10 115/1/10 83/1/10
f 69/1/25 101/1/25 102/1/25 70/1/25
f 96/1/12 128/1/12 98/1/12 65/1/12
f 83/1/13 115/1/13 116/1/13 84/1/13
f 70/1/27 102/1/27 103/1/27 71/1/27
f 84/1/16 116/1/16 117/1/16 85/1/16
f 71/1/29 103/1/29 104/1/29 72/1/29
f 85/1/19 117/1/19 118/1/19 86/1/19
f 72/1/31 104/1/31 105/1/31 73/1/31
f 86/1/22 118/1/22 119/1/22 87/1/22
f 73/1/33 105/1/33 106/1/33 74/1/33
f 87/1/24 119/1/24 120/1/24 88/1/24
f 74/1/3 106/1/3 107/1/3 75/1/3
f 88/1/26 120/1/26 121/1/26 89/1/26
f 75/1/5 107/1/5 108/1/5 76/1/5
f 89/1/28 121/1/28 122/1/28 90/1/28
f 76/1/8 108/1/8 109/1/8 77/1/8
