# Blender 4.4.0
# www.blender.org
mtllib hana2.mtl
o 立方体.001
v 0.000000 -0.008548 0.330933
v -0.104933 0.406164 0.401716
v -0.107260 0.317730 0.447698
v -0.059710 0.406164 0.439382
v -0.113411 0.406164 0.274727
v -0.073597 0.406164 0.231384
v -0.121831 0.317730 0.229463
v 0.113411 0.406164 0.387139
v 0.073597 0.406164 0.430481
v 0.121831 0.317730 0.432403
v 0.059710 0.406164 0.222484
v 0.104933 0.406164 0.260149
v 0.107260 0.317730 0.214167
v -0.080068 0.457353 0.374648
v -0.034845 0.457353 0.412313
v -0.022797 0.499224 0.355750
v -0.085169 0.457353 0.298249
v -0.025894 0.499224 0.309366
v -0.045354 0.457353 0.254907
v 0.034845 0.457353 0.249552
v 0.022797 0.499224 0.306115
v 0.080068 0.457353 0.287217
v 0.085169 0.457353 0.363616
v 0.025894 0.499224 0.352499
v 0.045354 0.457353 0.406959
v -0.006044 -0.006044 0.330933
v 0.209833 0.364569 0.394569
v 0.143493 0.305845 0.440293
v 0.239966 0.334437 0.435163
v 0.209833 0.364569 0.267296
v 0.239966 0.334437 0.226702
v 0.143493 0.305845 0.221572
v 0.364569 0.209833 0.394569
v 0.334437 0.239966 0.435163
v 0.305845 0.143493 0.440293
v 0.334437 0.239966 0.226702
v 0.364569 0.209833 0.267297
v 0.305845 0.143493 0.221572
v 0.264847 0.381947 0.369217
v 0.294979 0.351815 0.409811
v 0.335751 0.370258 0.354176
v 0.264847 0.381947 0.292648
v 0.335751 0.370258 0.307689
v 0.294979 0.351815 0.252054
v 0.351815 0.294980 0.252054
v 0.370258 0.335751 0.307689
v 0.381947 0.264847 0.292648
v 0.381947 0.264847 0.369217
v 0.370258 0.335751 0.354176
v 0.351815 0.294980 0.409811
v -0.008538 -0.000009 0.330530
v 0.402837 0.112742 0.408406
v 0.312353 0.120177 0.449609
v 0.400877 0.072088 0.450917
v 0.408832 0.106747 0.281416
v 0.410697 0.062269 0.242920
v 0.322656 0.109874 0.231374
v 0.402594 -0.105845 0.418714
v 0.400729 -0.061366 0.457211
v 0.312098 -0.109168 0.460425
v 0.410549 -0.071186 0.249213
v 0.408589 -0.111840 0.291725
v 0.322401 -0.119471 0.242190
v 0.455133 0.085022 0.386776
v 0.453174 0.044368 0.429287
v 0.497602 0.026022 0.376492
v 0.458740 0.081415 0.310377
v 0.499791 0.023832 0.330107
v 0.460605 0.036937 0.271880
v 0.460516 -0.043352 0.275666
v 0.499737 -0.024913 0.332406
v 0.458556 -0.084006 0.318178
v 0.454949 -0.080399 0.394576
v 0.497547 -0.022723 0.378790
v 0.453085 -0.035921 0.433073
v -0.006012 0.005998 0.329962
v 0.360287 -0.200846 0.435070
v 0.299764 -0.129808 0.470154
v 0.328156 -0.226207 0.477356
v 0.366260 -0.215297 0.308762
v 0.337938 -0.249877 0.270475
v 0.310028 -0.154643 0.253090
v 0.205066 -0.354753 0.445339
v 0.233388 -0.320173 0.483626
v 0.136903 -0.291290 0.480928
v 0.243170 -0.343842 0.276744
v 0.211039 -0.369204 0.319031
v 0.147167 -0.316125 0.263864
v 0.378602 -0.258363 0.416971
v 0.346470 -0.283725 0.459258
v 0.367330 -0.330529 0.409539
v 0.382195 -0.267057 0.340982
v 0.369512 -0.335808 0.363404
v 0.353873 -0.301637 0.302696
v 0.296859 -0.358168 0.306467
v 0.334897 -0.370130 0.365694
v 0.264728 -0.383530 0.348754
v 0.261135 -0.374836 0.424743
v 0.332715 -0.364851 0.411829
v 0.289456 -0.340256 0.463029
v 0.000046 0.008437 0.329564
v 0.107271 -0.391310 0.458840
v 0.113148 -0.296725 0.489814
v 0.064675 -0.384581 0.498892
v 0.107216 -0.411692 0.333210
v 0.064586 -0.417965 0.293122
v 0.113054 -0.331752 0.273916
v -0.111556 -0.390141 0.458746
v -0.068926 -0.383867 0.498834
v -0.116449 -0.295498 0.489715
v -0.069015 -0.417251 0.293064
v -0.111611 -0.410523 0.333116
v -0.116543 -0.330525 0.273817
v 0.080374 -0.445755 0.442002
v 0.037779 -0.439026 0.482053
v 0.021742 -0.489181 0.433835
v 0.080341 -0.458017 0.366421
v 0.021722 -0.496626 0.387948
v 0.037711 -0.464290 0.326332
v -0.042666 -0.463861 0.326298
v -0.027077 -0.496365 0.387927
v -0.085261 -0.457132 0.366350
v -0.085228 -0.444870 0.441930
v -0.027057 -0.488921 0.433814
v -0.042598 -0.438597 0.482019
v 0.006063 0.005869 0.329570
v -0.207039 -0.346356 0.465702
v -0.137470 -0.282162 0.496999
v -0.234221 -0.309659 0.502827
v -0.215573 -0.366647 0.340348
v -0.248197 -0.342894 0.297508
v -0.152134 -0.317033 0.281574
v -0.360598 -0.191144 0.451030
v -0.327974 -0.214896 0.493870
v -0.298587 -0.119310 0.481605
v -0.341950 -0.248132 0.288551
v -0.369131 -0.211435 0.325676
v -0.313251 -0.154181 0.266180
v -0.263721 -0.366671 0.447109
v -0.290903 -0.329974 0.484234
v -0.335411 -0.356396 0.435055
v -0.268855 -0.378879 0.371694
v -0.338527 -0.363808 0.389268
v -0.301480 -0.355126 0.328855
v -0.357883 -0.298115 0.323466
v -0.372772 -0.329195 0.385996
v -0.385064 -0.261418 0.360591
v -0.379930 -0.249211 0.436006
v -0.369655 -0.321783 0.431783
v -0.347306 -0.272963 0.478845
v 0.008492 -0.000191 0.329977
v -0.397333 -0.092488 0.451610
v -0.304331 -0.094706 0.487472
v -0.392310 -0.045614 0.486842
v -0.411797 -0.106721 0.325966
v -0.416001 -0.068925 0.281048
v -0.329188 -0.119165 0.271549
v -0.395231 0.124913 0.426741
v -0.391027 0.087118 0.471659
v -0.302126 0.133396 0.461379
v -0.414718 0.063806 0.265865
v -0.409695 0.110681 0.301097
v -0.326983 0.108937 0.245456
v -0.450813 -0.067738 0.429283
v -0.445790 -0.020863 0.464515
v -0.493559 -0.010461 0.412480
v -0.459515 -0.076301 0.353693
v -0.498842 -0.015660 0.366587
v -0.463719 -0.038505 0.308776
v -0.462947 0.041348 0.299641
v -0.498374 0.032822 0.361041
v -0.457924 0.088223 0.334873
v -0.449223 0.096786 0.410463
v -0.493091 0.038020 0.406934
v -0.445019 0.058990 0.455380
v 0.005901 -0.006172 0.330545
v -0.351416 0.220618 0.424873
v -0.289058 0.155123 0.466851
v -0.316387 0.251880 0.460361
v -0.365766 0.214840 0.298544
v -0.339891 0.242416 0.253446
v -0.313719 0.145194 0.249751
v -0.195036 0.371690 0.400199
v -0.220911 0.344114 0.445297
v -0.124980 0.313631 0.440963
v -0.244416 0.334651 0.238382
v -0.209386 0.365912 0.273871
v -0.149641 0.303702 0.223863
v -0.370596 0.274800 0.399032
v -0.335566 0.306061 0.434521
v -0.359462 0.344668 0.379419
v -0.379229 0.271324 0.323031
v -0.364704 0.342557 0.333276
v -0.353354 0.298899 0.277933
v -0.295914 0.354389 0.268870
v -0.329830 0.376247 0.327774
v -0.260885 0.385651 0.304359
v -0.252251 0.389127 0.380360
v -0.324589 0.378358 0.373917
v -0.278127 0.361551 0.425458
v 0.000000 0.004502 0.330933
v -0.093901 0.401270 0.396751
v -0.098713 0.319310 0.437964
v -0.056485 0.401361 0.427685
v -0.101818 0.401270 0.278181
v -0.068846 0.401361 0.242549
v -0.112065 0.319310 0.237974
v 0.101818 0.401270 0.383684
v 0.068846 0.401361 0.419317
v 0.112065 0.319310 0.423892
v 0.056485 0.401361 0.234181
v 0.093901 0.401270 0.265114
v 0.098713 0.319310 0.223901
v -0.071256 0.448570 0.370711
v -0.032316 0.448720 0.402860
v -0.019703 0.487097 0.352056
v -0.075912 0.448570 0.300980
v -0.022336 0.487097 0.312616
v -0.041591 0.448720 0.263940
v 0.032316 0.448720 0.259005
v 0.019703 0.487097 0.309809
v 0.071256 0.448570 0.291155
v 0.075912 0.448570 0.360885
v 0.022336 0.487097 0.349249
v 0.041591 0.448720 0.397926
v 0.003183 0.003183 0.330933
v 0.214390 0.353092 0.390350
v 0.151099 0.300474 0.431151
v 0.239396 0.328215 0.423707
v 0.214390 0.353092 0.271516
v 0.239395 0.328215 0.238159
v 0.151099 0.300474 0.230715
v 0.353092 0.214390 0.390350
v 0.328215 0.239396 0.423707
v 0.300474 0.151099 0.431151
v 0.328215 0.239396 0.238159
v 0.353092 0.214390 0.271516
v 0.300474 0.151099 0.230715
v 0.265039 0.369334 0.365876
v 0.291105 0.343481 0.400547
v 0.329534 0.359326 0.350697
v 0.265039 0.369334 0.295990
v 0.329534 0.359326 0.311169
v 0.291105 0.343481 0.261318
v 0.343481 0.291105 0.261318
v 0.359326 0.329534 0.311169
v 0.369334 0.265039 0.295990
v 0.369334 0.265039 0.365876
v 0.359325 0.329534 0.350697
v 0.343481 0.291105 0.400547
v 0.004497 0.000005 0.331145
v 0.398135 0.101213 0.404500
v 0.314352 0.110582 0.440994
v 0.396615 0.067551 0.439449
v 0.403732 0.095615 0.285930
v 0.405355 0.058811 0.254313
v 0.323794 0.101140 0.241003
v 0.397917 -0.094724 0.413740
v 0.396475 -0.057919 0.445365
v 0.314117 -0.100431 0.450945
v 0.405216 -0.066659 0.260230
v 0.403515 -0.100322 0.295170
v 0.323559 -0.109873 0.250954
v 0.446507 0.075810 0.383454
v 0.444983 0.040772 0.419785
v 0.485648 0.022515 0.372605
v 0.449799 0.072518 0.313724
v 0.487510 0.020653 0.333165
v 0.451542 0.034214 0.280865
v 0.451460 -0.039775 0.284354
v 0.487463 -0.021433 0.335150
v 0.449636 -0.074814 0.320671
v 0.446344 -0.071522 0.390402
v 0.485601 -0.019571 0.374590
v 0.444901 -0.033217 0.423275
v 0.003166 -0.003159 0.331444
v 0.349001 -0.205865 0.430859
v 0.294795 -0.138409 0.461691
v 0.322480 -0.226949 0.465629
v 0.354578 -0.219357 0.312925
v 0.331187 -0.248017 0.281487
v 0.304201 -0.161167 0.262773
v 0.209864 -0.343824 0.440064
v 0.233382 -0.315292 0.471523
v 0.144952 -0.286983 0.471604
v 0.242089 -0.336360 0.287381
v 0.215441 -0.357317 0.322130
v 0.154358 -0.309742 0.272686
v 0.366159 -0.258947 0.413083
v 0.338597 -0.280936 0.449232
v 0.356600 -0.324759 0.404865
v 0.369438 -0.266882 0.343726
v 0.358455 -0.329247 0.365637
v 0.345130 -0.296745 0.311057
v 0.292590 -0.348841 0.314533
v 0.328569 -0.358880 0.367614
v 0.264816 -0.370619 0.350648
v 0.261536 -0.362684 0.420004
v 0.326714 -0.354391 0.406842
v 0.286056 -0.333032 0.452708
v -0.000024 -0.004444 0.331654
v 0.095958 -0.387094 0.453887
v 0.103960 -0.299699 0.481039
v 0.060700 -0.381653 0.486812
v 0.095907 -0.406125 0.336586
v 0.060620 -0.411368 0.303659
v 0.103873 -0.331798 0.283190
v -0.100194 -0.386046 0.453802
v -0.064908 -0.380982 0.486758
v -0.107285 -0.298571 0.480948
v -0.064988 -0.410697 0.303605
v -0.100245 -0.405077 0.336502
v -0.107371 -0.330669 0.283099
v 0.071365 -0.437572 0.437293
v 0.034668 -0.431971 0.471525
v 0.018472 -0.477751 0.428457
v 0.071335 -0.448764 0.368309
v 0.018455 -0.484081 0.389439
v 0.034608 -0.454268 0.334093
v -0.039462 -0.453873 0.334061
v -0.023677 -0.483856 0.389421
v -0.076159 -0.447976 0.368245
v -0.076128 -0.436784 0.437229
v -0.023660 -0.477526 0.428439
v -0.039402 -0.431576 0.471493
v -0.003193 -0.003091 0.331650
v -0.211807 -0.335627 0.460006
v -0.145643 -0.278196 0.487631
v -0.234387 -0.305353 0.490510
v -0.219774 -0.354573 0.342963
v -0.246827 -0.334935 0.307758
v -0.159081 -0.310152 0.290215
v -0.349454 -0.196497 0.446855
v -0.322531 -0.216260 0.482088
v -0.293881 -0.128361 0.473467
v -0.334971 -0.245842 0.299336
v -0.357422 -0.215444 0.329811
v -0.307320 -0.160317 0.276052
v -0.264069 -0.354751 0.441811
v -0.287613 -0.323287 0.473522
v -0.329382 -0.346259 0.429471
v -0.268755 -0.365893 0.372978
v -0.332032 -0.352561 0.390539
v -0.296948 -0.345484 0.336391
v -0.348926 -0.292947 0.331425
v -0.361597 -0.322678 0.387714
v -0.372257 -0.261276 0.363089
v -0.367571 -0.250134 0.431922
v -0.358947 -0.316376 0.426646
v -0.339591 -0.270749 0.468556
v -0.004472 0.000101 0.331436
v -0.392841 -0.081806 0.445609
v -0.306852 -0.086576 0.477580
v -0.388802 -0.043032 0.474541
v -0.406346 -0.095095 0.328295
v -0.409889 -0.063781 0.291367
v -0.329630 -0.108991 0.279708
v -0.390958 0.113069 0.423317
v -0.387596 0.081758 0.460266
v -0.304823 0.123293 0.453573
v -0.408682 0.061009 0.277092
v -0.404463 0.099779 0.306003
v -0.327601 0.100878 0.255701
v -0.442380 -0.059313 0.423973
v -0.438236 -0.018960 0.454046
v -0.481875 -0.007810 0.407309
v -0.450322 -0.067129 0.354981
v -0.486367 -0.012230 0.368287
v -0.454059 -0.034530 0.316597
v -0.453348 0.039058 0.308179
v -0.485962 0.029627 0.363499
v -0.448906 0.079405 0.338219
v -0.440963 0.087220 0.407211
v -0.481470 0.034047 0.402521
v -0.437525 0.054628 0.445628
v -0.003108 0.003250 0.331137
v -0.340411 0.224720 0.419184
v -0.284622 0.162184 0.456813
v -0.311507 0.250651 0.448321
v -0.353810 0.219325 0.301231
v -0.332427 0.242227 0.264149
v -0.307221 0.153085 0.257863
v -0.200235 0.360138 0.397068
v -0.221743 0.337367 0.434158
v -0.133659 0.308022 0.432994
v -0.242664 0.328944 0.249986
v -0.213634 0.354743 0.279114
v -0.156259 0.298923 0.234044
v -0.358438 0.274557 0.394296
v -0.328397 0.301584 0.424578
v -0.349100 0.338055 0.375038
v -0.366318 0.271384 0.324928
v -0.353557 0.336261 0.335804
v -0.344096 0.295263 0.286381
v -0.291163 0.346400 0.278029
v -0.323448 0.365348 0.331053
v -0.260914 0.373210 0.308298
v -0.253035 0.376383 0.377665
v -0.318992 0.367142 0.370288
v -0.275465 0.352720 0.416226
vn 0.0597 0.4438 0.8941
vn 0.8853 0.4613 -0.0591
vn -0.0000 1.0000 -0.0000
vn -0.9412 -0.3319 0.0628
vn -0.0597 0.4438 -0.8941
vn -0.8853 0.4613 0.0591
vn -0.0632 -0.3178 -0.9461
vn 0.9412 -0.3319 -0.0628
vn -0.5908 0.3844 0.7094
vn -0.6799 0.3844 -0.6245
vn 0.6799 0.3844 0.6245
vn 0.5908 0.3844 -0.7094
vn -0.4053 0.7739 0.4866
vn -0.4664 0.7739 -0.4284
vn 0.4053 0.7739 -0.4866
vn 0.4664 0.7739 0.4284
vn -0.9959 0.0608 0.0665
vn -0.0665 0.0579 -0.9961
vn 0.9959 0.0608 -0.0665
vn 0.0665 0.0579 0.9961
vn -0.5814 0.8127 0.0388
vn -0.0401 0.7990 -0.6000
vn 0.5814 0.8127 -0.0388
vn 0.0401 0.7990 0.6000
vn -0.5201 0.5828 0.6244
vn -0.5984 0.5828 -0.5497
vn 0.5984 0.5828 0.5497
vn 0.5201 0.5828 -0.6244
vn 0.0632 -0.3178 0.9461
vn 0.3138 0.3138 0.8961
vn 0.9536 -0.3012 -0.0000
vn 0.7071 0.7071 -0.0000
vn -0.9017 0.4323 -0.0000
vn 0.3138 0.3138 -0.8961
vn -0.3012 0.9536 -0.0000
vn -0.2247 -0.2247 -0.9482
vn 0.4323 -0.9017 -0.0000
vn -0.1785 0.7221 0.6684
vn -0.1785 0.7221 -0.6684
vn 0.7221 -0.1785 0.6684
vn 0.7221 -0.1785 -0.6684
vn 0.2384 0.8561 0.4585
vn 0.2384 0.8561 -0.4585
vn 0.8561 0.2384 -0.4585
vn 0.8561 0.2384 0.4585
vn -0.6628 0.7488 -0.0000
vn 0.0410 0.0410 -0.9983
vn 0.7488 -0.6628 -0.0000
vn 0.0410 0.0410 0.9983
vn 0.1627 0.9867 -0.0000
vn 0.5650 0.5650 -0.6013
vn 0.9867 0.1627 -0.0000
vn 0.5650 0.5650 0.6013
vn 0.0158 0.8084 0.5884
vn 0.0158 0.8084 -0.5884
vn 0.8084 0.0158 0.5884
vn 0.8084 0.0158 -0.5884
vn -0.2247 -0.2247 0.9482
vn 0.4011 0.0427 0.9150
vn 0.4598 -0.8858 0.0635
vn 0.9989 0.0011 0.0471
vn -0.3305 0.9419 -0.0601
vn 0.4855 -0.0417 -0.8732
vn 0.4618 0.8868 -0.0201
vn -0.2728 -0.0450 -0.9610
vn -0.3326 -0.9426 0.0288
vn 0.3532 0.6680 0.6551
vn 0.4162 0.6050 -0.6788
vn 0.3518 -0.6041 0.7150
vn 0.4147 -0.6671 -0.6188
vn 0.7520 0.4588 0.4734
vn 0.7952 0.4156 -0.4416
vn 0.7942 -0.4570 -0.4005
vn 0.7510 -0.4138 0.5145
vn 0.0618 0.9971 -0.0442
vn 0.1049 -0.0470 -0.9934
vn 0.0596 -0.9970 0.0499
vn 0.0108 0.0471 0.9988
vn 0.8125 0.5829 0.0108
vn 0.8264 -0.0274 -0.5624
vn 0.8112 -0.5811 0.0657
vn 0.7698 0.0292 0.6376
vn 0.5551 0.5882 0.5881
vn 0.6105 0.5328 -0.5860
vn 0.5538 -0.5315 0.6409
vn 0.6092 -0.5869 -0.5332
vn -0.3621 0.0443 0.9311
vn 0.2701 -0.2097 0.9397
vn -0.3049 -0.9477 0.0940
vn 0.7033 -0.7017 0.1135
vn 0.4357 0.8964 -0.0820
vn 0.3542 -0.4132 -0.8389
vn 0.9538 0.3003 0.0107
vn -0.1790 0.1154 -0.9771
vn -0.9025 -0.4305 0.0066
vn 0.6906 0.2540 0.6771
vn 0.7534 0.1022 -0.6496
vn -0.2127 -0.6417 0.7369
vn -0.1500 -0.7935 -0.5898
vn 0.8326 -0.1838 0.5224
vn 0.8757 -0.2880 -0.3877
vn 0.2560 -0.9024 -0.3467
vn 0.2130 -0.7982 0.5634
vn 0.7508 0.6594 -0.0399
vn 0.0876 -0.1540 -0.9842
vn -0.6653 -0.7447 0.0537
vn -0.0061 0.0727 0.9973
vn 0.9849 -0.1605 0.0649
vn 0.5902 -0.6290 -0.5061
vn 0.1583 -0.9801 0.1196
vn 0.5337 -0.4924 0.6875
vn 0.7799 0.0520 0.6238
vn 0.8351 -0.0816 -0.5440
vn -0.0153 -0.7364 0.6764
vn 0.0399 -0.8700 -0.4914
vn -0.2680 0.3307 0.9049
vn -0.0020 -0.2946 0.9556
vn -0.8897 -0.4506 0.0735
vn -0.0053 -0.9871 0.1601
vn 0.9451 0.3226 -0.0527
vn -0.0028 -0.5816 -0.8135
vn 0.8848 -0.4601 0.0743
vn 0.0013 0.1619 -0.9868
vn -0.9415 0.3327 -0.0536
vn 0.6350 -0.2758 0.7216
vn 0.6344 -0.4899 -0.5980
vn -0.6385 -0.2690 0.7211
vn -0.6391 -0.4831 -0.5985
vn 0.4328 -0.6928 0.5767
vn 0.4324 -0.8397 -0.3285
vn -0.4411 -0.8350 -0.3288
vn -0.4407 -0.6882 0.5764
vn 0.9978 -0.0653 0.0102
vn -0.0007 -0.2170 -0.9762
vn -0.9985 -0.0547 0.0093
vn 0.0001 0.1027 0.9947
vn 0.5783 -0.8053 0.1304
vn -0.0045 -0.8850 -0.4656
vn -0.5870 -0.7991 0.1299
vn -0.0040 -0.6924 0.7215
vn 0.5576 -0.4840 0.6744
vn 0.5571 -0.6725 -0.4872
vn -0.5633 -0.4780 0.6739
vn -0.5639 -0.6665 -0.4877
vn 0.0021 0.4655 0.8850
vn -0.2547 -0.1619 0.9534
vn -0.9498 0.3126 0.0141
vn -0.7093 -0.6867 0.1594
vn 0.8974 -0.4412 0.0103
vn -0.3749 -0.4476 -0.8119
vn 0.2954 -0.9461 0.1330
vn 0.1618 0.0671 -0.9845
vn -0.4265 0.8970 -0.1162
vn 0.2190 -0.6090 0.7623
vn 0.1294 -0.8221 -0.5544
vn -0.6746 0.2943 0.6769
vn -0.7643 0.0811 -0.6398
vn -0.2117 -0.7681 0.6043
vn -0.2732 -0.9143 -0.2989
vn -0.8862 -0.2947 -0.3575
vn -0.8247 -0.1485 0.5457
vn 0.6573 -0.7497 0.0766
vn -0.1080 -0.1989 -0.9740
vn -0.7435 0.6662 -0.0572
vn 0.0259 0.1194 0.9925
vn -0.1676 -0.9713 0.1686
vn -0.6070 -0.6445 -0.4649
vn -0.9853 -0.1448 0.0905
vn -0.5264 -0.4528 0.7197
vn 0.0194 -0.7039 0.7100
vn -0.0595 -0.8915 -0.4490
vn -0.7672 0.0912 0.6348
vn -0.8461 -0.0964 -0.5242
vn 0.2890 0.3694 0.8832
vn -0.3391 0.1102 0.9343
vn -0.4497 0.8918 -0.0492
vn -0.9935 0.0224 0.1118
vn 0.3207 -0.9446 0.0701
vn -0.5428 -0.0903 -0.8350
vn -0.4668 -0.8711 0.1524
vn 0.2080 -0.1131 -0.9716
vn 0.3388 0.9297 -0.1443
vn -0.3120 -0.5492 0.7752
vn -0.4640 -0.6987 -0.5445
vn -0.2998 0.7160 0.6305
vn -0.4517 0.5665 -0.6893
vn -0.7210 -0.3653 0.5888
vn -0.8252 -0.4679 -0.3165
vn -0.8168 0.4000 -0.4157
vn -0.7126 0.5025 0.4896
vn -0.0700 -0.9903 0.1202
vn -0.1710 -0.1103 -0.9791
vn -0.0508 0.9930 -0.1066
vn 0.0559 0.1129 0.9920
vn -0.8130 -0.5607 0.1571
vn -0.8621 -0.0494 -0.5043
vn -0.8018 0.5971 0.0247
vn -0.7254 0.0851 0.6830
vn -0.5175 -0.4780 0.7097
vn -0.6512 -0.6096 -0.4520
vn -0.5067 0.6357 0.5823
vn -0.6405 0.5041 -0.5794
vn 0.4235 0.0989 0.9005
vn -0.2054 0.3611 0.9096
vn 0.3156 0.9456 -0.0791
vn -0.6904 0.7220 0.0454
vn -0.4450 -0.8909 0.0913
vn -0.4074 0.2798 -0.8693
vn -0.9525 -0.2795 0.1210
vn 0.1125 -0.2725 -0.9556
vn 0.9032 0.4116 -0.1214
vn -0.6450 -0.1317 0.7527
vn -0.7958 -0.1924 -0.5742
vn 0.2650 0.7475 0.6091
vn 0.1143 0.6868 -0.7178
vn -0.7947 0.2781 0.5395
vn -0.8981 0.2365 -0.3707
vn -0.2739 0.8395 -0.4692
vn -0.1705 0.8812 0.4410
vn -0.7553 -0.6452 0.1153
vn -0.1525 -0.0035 -0.9883
vn 0.6713 0.7330 -0.1098
vn 0.0726 0.0871 0.9935
vn -0.9775 0.1846 0.1026
vn -0.6194 0.5496 -0.5606
vn -0.1447 0.9891 -0.0288
vn -0.4838 0.6042 0.6331
vn -0.7365 0.0606 0.6737
vn -0.8692 0.0071 -0.4944
vn 0.0645 0.8345 0.5473
vn -0.0681 0.7810 -0.6208
vn 0.3263 -0.1864 0.9267
vn -0.0598 -0.4393 -0.8963
vn -0.8873 -0.4574 0.0592
vn -0.0000 -1.0000 -0.0000
vn 0.9460 0.3181 -0.0632
vn 0.0598 -0.4393 0.8963
vn 0.8873 -0.4574 -0.0592
vn 0.0635 0.3033 0.9508
vn -0.9460 0.3181 0.0632
vn 0.5870 -0.3909 -0.7089
vn 0.6761 -0.3909 0.6246
vn -0.6761 -0.3909 -0.6246
vn -0.5870 -0.3909 0.7089
vn 0.4038 -0.7754 -0.4855
vn 0.4648 -0.7754 0.4275
vn -0.4038 -0.7754 0.4855
vn -0.4648 -0.7754 -0.4275
vn 0.9936 -0.0917 -0.0663
vn 0.0663 -0.0904 0.9937
vn -0.9936 -0.0917 0.0663
vn -0.0663 -0.0904 -0.9937
vn 0.5890 -0.8072 -0.0393
vn 0.0406 -0.7924 0.6087
vn -0.5890 -0.8072 0.0393
vn -0.0406 -0.7924 -0.6087
vn 0.5157 -0.5893 -0.6220
vn 0.5938 -0.5893 0.5479
vn -0.5938 -0.5893 -0.5479
vn -0.5157 -0.5893 0.6220
vn -0.0635 0.3033 -0.9508
vn -0.3106 -0.3106 -0.8983
vn -0.9522 0.3054 -0.0000
vn -0.7071 -0.7071 -0.0000
vn 0.8953 -0.4455 -0.0000
vn -0.3106 -0.3106 0.8983
vn 0.3054 -0.9522 -0.0000
vn 0.2145 0.2145 0.9529
vn -0.4455 0.8953 -0.0000
vn 0.1711 -0.7240 -0.6682
vn 0.1711 -0.7240 0.6682
vn -0.7240 0.1711 -0.6682
vn -0.7240 0.1711 0.6682
vn -0.2405 -0.8561 -0.4575
vn -0.2405 -0.8561 0.4575
vn -0.8561 -0.2405 0.4575
vn -0.8561 -0.2405 -0.4575
vn 0.6393 -0.7690 -0.0000
vn -0.0639 -0.0639 0.9959
vn -0.7690 0.6393 -0.0000
vn -0.0639 -0.0639 -0.9959
vn -0.1534 -0.9882 -0.0000
vn -0.5603 -0.5603 0.6100
vn -0.9882 -0.1534 -0.0000
vn -0.5603 -0.5603 -0.6100
vn -0.0235 -0.8098 -0.5862
vn -0.0235 -0.8098 0.5862
vn -0.8098 -0.0235 -0.5862
vn -0.8098 -0.0235 0.5862
vn 0.2145 0.2145 -0.9529
vn -0.3965 -0.0428 -0.9170
vn -0.4559 0.8878 -0.0634
vn -0.9989 -0.0011 -0.0471
vn 0.3167 -0.9467 0.0596
vn -0.4811 0.0418 0.8756
vn -0.4579 -0.8888 0.0203
vn 0.2581 0.0452 0.9651
vn 0.3188 0.9474 -0.0297
vn -0.3597 -0.6642 -0.6554
vn -0.4227 -0.6012 0.6782
vn -0.3583 0.6003 -0.7150
vn -0.4213 0.6633 0.6185
vn -0.7535 -0.4572 -0.4725
vn -0.7966 -0.4141 0.4405
vn -0.7956 0.4555 0.3995
vn -0.7525 0.4124 -0.5135
vn -0.0927 -0.9948 0.0426
vn -0.1372 0.0468 0.9894
vn -0.0905 0.9946 -0.0512
vn -0.0433 -0.0470 -0.9980
vn -0.8069 -0.5905 -0.0102
vn -0.8202 0.0279 0.5713
vn -0.8056 0.5888 -0.0658
vn -0.7628 -0.0296 -0.6460
vn -0.5616 -0.5836 -0.5865
vn -0.6168 -0.5284 0.5834
vn -0.5604 0.5271 -0.6389
vn -0.6156 0.5823 0.5310
vn 0.3479 -0.0445 -0.9365
vn -0.2668 0.2063 -0.9414
vn 0.3091 0.9464 -0.0937
vn -0.7033 0.7017 -0.1135
vn -0.4488 -0.8900 0.0806
vn -0.3511 0.4103 0.8417
vn -0.9525 -0.3044 -0.0102
vn 0.1686 -0.1047 0.9801
vn 0.8962 0.4436 -0.0084
vn -0.6926 -0.2467 -0.6779
vn -0.7553 -0.0950 0.6485
vn 0.2054 0.6436 -0.7373
vn 0.1427 0.7954 0.5891
vn -0.8326 0.1861 -0.5217
vn -0.8756 0.2900 0.3864
vn -0.2581 0.9022 0.3456
vn -0.2152 0.7983 -0.5625
vn -0.7708 -0.6360 0.0363
vn -0.1103 0.1765 0.9781
vn 0.6419 0.7647 -0.0571
vn -0.0168 -0.0497 -0.9986
vn -0.9864 0.1513 -0.0639
vn -0.5859 0.6253 0.5154
vn -0.1490 0.9816 -0.1194
vn -0.5287 0.4868 -0.6954
vn -0.7813 -0.0441 -0.6226
vn -0.8363 0.0890 0.5410
vn 0.0074 0.7380 -0.6748
vn -0.0476 0.8711 0.4888
vn 0.2581 -0.3211 -0.9112
vn 0.0020 0.2898 -0.9571
vn 0.8917 0.4467 -0.0729
vn 0.0053 0.9871 -0.1601
vn -0.9497 -0.3089 0.0505
vn 0.0027 0.5775 0.8164
vn -0.8868 0.4562 -0.0736
vn -0.0012 -0.1468 0.9892
vn 0.9463 -0.3190 0.0513
vn -0.6311 0.2823 -0.7225
vn -0.6306 0.4963 0.5967
vn 0.6347 0.2755 -0.7219
vn 0.6353 0.4895 0.5973
vn -0.4313 0.6944 -0.5760
vn -0.4309 0.8410 0.3272
vn 0.4396 0.8363 0.3276
vn 0.4392 0.6898 -0.5756
vn -0.9953 0.0958 -0.0151
vn 0.0009 0.2487 0.9686
vn 0.9963 0.0852 -0.0143
vn 0.0001 -0.0703 -0.9975
vn -0.5860 0.7999 -0.1295
vn 0.0045 0.8798 0.4752
vn 0.5946 0.7936 -0.1290
vn 0.0040 0.6845 -0.7290
vn -0.5531 0.4907 -0.6733
vn -0.5526 0.6785 0.4841
vn 0.5589 0.4848 -0.6728
vn 0.5594 0.6726 0.4845
vn -0.0020 -0.4520 -0.8920
vn 0.2514 0.1584 -0.9548
vn 0.9484 -0.3167 -0.0133
vn 0.7093 0.6867 -0.1594
vn -0.8909 0.4540 -0.0128
vn 0.3718 0.4449 0.8148
vn -0.2996 0.9448 -0.1325
vn -0.1513 -0.0564 0.9869
vn 0.4397 -0.8909 0.1143
vn -0.2117 0.6108 -0.7629
vn -0.1221 0.8239 0.5534
vn 0.6766 -0.2870 -0.6781
vn 0.7662 -0.0740 0.6383
vn 0.2139 0.7682 -0.6034
vn 0.2752 0.9141 0.2978
vn 0.8861 0.2967 0.3562
vn 0.8247 0.1508 -0.5451
vn -0.6337 0.7693 -0.0814
vn 0.1309 0.2208 0.9665
vn 0.7638 -0.6433 0.0521
vn -0.0027 -0.0967 -0.9953
vn 0.1583 0.9729 -0.1683
vn 0.6029 0.6414 0.4745
vn 0.9868 0.1356 -0.0891
vn 0.5211 0.4468 -0.7272
vn -0.0115 0.7055 -0.7086
vn 0.0671 0.8924 0.4462
vn 0.7688 -0.0832 -0.6341
vn 0.8474 0.1037 0.5207
vn -0.2790 -0.3602 -0.8902
vn 0.3343 -0.1103 -0.9360
vn 0.4459 -0.8937 0.0499
vn 0.9935 -0.0224 -0.1118
vn -0.3069 0.9490 -0.0722
vn 0.5385 0.0906 0.8377
vn 0.4630 0.8732 -0.1522
vn -0.1931 0.1134 0.9746
vn -0.3251 -0.9348 0.1433
vn 0.3185 0.5453 -0.7753
vn 0.4704 0.6948 0.5440
vn 0.3064 -0.7123 -0.6315
vn 0.4582 -0.5628 0.6879
vn 0.7225 0.3639 -0.5878
vn 0.8265 0.4662 0.3155
vn 0.8182 -0.3986 0.4144
vn 0.7142 -0.5009 -0.4889
vn 0.1007 0.9872 -0.1234
vn 0.2029 0.1093 0.9731
vn 0.0815 -0.9913 0.1029
vn -0.0234 -0.1134 -0.9933
vn 0.8076 0.5684 -0.1574
vn 0.8565 0.0505 0.5136
vn 0.7962 -0.6045 -0.0232
vn 0.7179 -0.0860 -0.6908
vn 0.5241 0.4736 -0.7078
vn 0.6574 0.6047 0.4496
vn 0.5135 -0.6311 -0.5814
vn 0.6467 -0.5000 0.5760
vn -0.4097 -0.0998 -0.9068
vn 0.2020 -0.3580 -0.9116
vn -0.3197 -0.9442 0.0795
vn 0.6904 -0.7220 -0.0454
vn 0.4579 0.8842 -0.0925
vn 0.4046 -0.2764 0.8717
vn 0.9513 0.2836 -0.1210
vn -0.1020 0.2623 0.9596
vn -0.8971 -0.4248 0.1213
vn 0.6469 0.1244 -0.7524
vn 0.7976 0.1850 0.5742
vn -0.2578 -0.7496 -0.6097
vn -0.1071 -0.6889 0.7169
vn 0.7948 -0.2802 -0.5384
vn 0.8979 -0.2386 0.3698
vn 0.2759 -0.8396 0.4680
vn 0.1727 -0.8811 -0.4402
vn 0.7749 0.6213 -0.1164
vn 0.1747 -0.0200 0.9844
vn -0.6483 -0.7537 0.1081
vn -0.0499 -0.1105 -0.9926
vn 0.9791 -0.1753 -0.1032
vn 0.6158 -0.5444 0.5695
vn 0.1354 -0.9903 0.0299
vn 0.4783 -0.5998 -0.6415
vn 0.7380 -0.0682 -0.6713
vn 0.8702 -0.0150 0.4924
vn -0.0566 -0.8359 -0.5459
vn 0.0756 -0.7827 0.6178
vn -0.3169 0.1758 -0.9320
vt 0.625000 0.952375
vt 0.625000 0.797625
vt 0.625000 0.809567
vt 0.625000 0.940433
vt 0.625000 0.702375
vt 0.625000 0.547625
vt 0.625000 0.559567
vt 0.625000 0.690433
vt 0.700028 0.575028
vt 0.799972 0.575028
vt 0.799972 0.674972
vt 0.700028 0.674972
vt 0.375000 0.000000
vt 0.593778 0.000000
vt 0.593778 0.218778
vt 0.625000 0.452375
vt 0.625000 0.297625
vt 0.625000 0.309567
vt 0.625000 0.440433
vt 0.625000 0.202375
vt 0.625000 0.047625
vt 0.625000 0.059567
vt 0.625000 0.190433
vt 0.375000 0.250000
vt 0.593778 0.250000
vt 0.593778 0.468778
vt 0.375000 0.500000
vt 0.593778 0.500000
vt 0.593778 0.718778
vt 0.625000 0.015611
vt 0.625000 0.000000
vt 0.625000 0.250000
vt 0.625000 0.234389
vt 0.625000 0.750000
vt 0.625000 0.765611
vt 0.625000 0.500000
vt 0.625000 0.484389
vt 0.625000 0.075028
vt 0.625000 0.174972
vt 0.625000 0.424972
vt 0.625000 0.825028
vt 0.593778 0.968778
vt 0.593778 0.750000
vt 0.625000 0.325028
vt 0.625000 0.924972
vt 0.375000 0.750000
s 0
usemtl マテリアル.001
f 4/1/1 9/2/1 25/3/1 15/4/1
f 8/5/2 12/6/2 22/7/2 23/8/2
f 21/9/3 18/10/3 16/11/3 24/12/3
f 1/13/4 3/14/4 7/15/4
f 11/16/5 6/17/5 19/18/5 20/19/5
f 5/20/6 2/21/6 14/22/6 17/23/6
f 1/24/7 7/25/7 13/26/7
f 1/27/8 13/28/8 10/29/8
f 2/21/9 3/30/9 4/31/9
f 5/20/10 6/32/10 7/33/10
f 8/34/11 9/2/11 10/35/11
f 11/16/12 12/36/12 13/37/12
f 14/22/13 15/31/13 16/38/13
f 17/23/14 18/39/14 19/32/14
f 20/19/15 21/40/15 22/36/15
f 23/34/16 24/41/16 25/3/16
f 2/21/17 5/20/17 7/15/17 3/14/17
f 6/17/18 11/16/18 13/26/18 7/25/18
f 12/6/19 8/5/19 10/29/19 13/28/19
f 9/2/20 4/1/20 3/42/20 10/43/20
f 16/38/21 18/39/21 17/23/21 14/22/21
f 18/44/22 21/40/22 20/19/22 19/18/22
f 21/9/23 24/12/23 23/8/23 22/7/23
f 24/41/24 16/45/24 15/4/24 25/3/24
f 4/31/25 15/31/25 14/22/25 2/21/25
f 19/18/26 6/17/26 5/20/26 17/23/26
f 8/5/27 23/8/27 25/3/27 9/2/27
f 22/7/28 12/6/28 11/16/28 20/19/28
f 1/46/29 10/43/29 3/42/29
f 29/1/30 34/2/30 50/3/30 40/4/30
f 33/5/31 37/6/31 47/7/31 48/8/31
f 46/9/32 43/10/32 41/11/32 49/12/32
f 26/13/33 28/14/33 32/15/33
f 36/16/34 31/17/34 44/18/34 45/19/34
f 30/20/35 27/21/35 39/22/35 42/23/35
f 26/24/36 32/25/36 38/26/36
f 26/27/37 38/28/37 35/29/37
f 27/21/38 28/30/38 29/31/38
f 30/20/39 31/32/39 32/33/39
f 33/34/40 34/2/40 35/35/40
f 36/16/41 37/36/41 38/37/41
f 39/22/42 40/31/42 41/38/42
f 42/23/43 43/39/43 44/32/43
f 45/19/44 46/40/44 47/36/44
f 48/34/45 49/41/45 50/3/45
f 27/21/46 30/20/46 32/15/46 28/14/46
f 31/17/47 36/16/47 38/26/47 32/25/47
f 37/6/48 33/5/48 35/29/48 38/28/48
f 34/2/49 29/1/49 28/42/49 35/43/49
f 41/38/50 43/39/50 42/23/50 39/22/50
f 43/44/51 46/40/51 45/19/51 44/18/51
f 46/9/52 49/12/52 48/8/52 47/7/52
f 49/41/53 41/45/53 40/4/53 50/3/53
f 29/31/54 40/31/54 39/22/54 27/21/54
f 44/18/55 31/17/55 30/20/55 42/23/55
f 33/5/56 48/8/56 50/3/56 34/2/56
f 47/7/57 37/6/57 36/16/57 45/19/57
f 26/46/58 35/43/58 28/42/58
f 54/1/59 59/2/59 75/3/59 65/4/59
f 58/5/60 62/6/60 72/7/60 73/8/60
f 71/9/61 68/10/61 66/11/61 74/12/61
f 51/13/62 53/14/62 57/15/62
f 61/16/63 56/17/63 69/18/63 70/19/63
f 55/20/64 52/21/64 64/22/64 67/23/64
f 51/24/65 57/25/65 63/26/65
f 51/27/66 63/28/66 60/29/66
f 52/21/67 53/30/67 54/31/67
f 55/20/68 56/32/68 57/33/68
f 58/34/69 59/2/69 60/35/69
f 61/16/70 62/36/70 63/37/70
f 64/22/71 65/31/71 66/38/71
f 67/23/72 68/39/72 69/32/72
f 70/19/73 71/40/73 72/36/73
f 73/34/74 74/41/74 75/3/74
f 52/21/75 55/20/75 57/15/75 53/14/75
f 56/17/76 61/16/76 63/26/76 57/25/76
f 62/6/77 58/5/77 60/29/77 63/28/77
f 59/2/78 54/1/78 53/42/78 60/43/78
f 66/38/79 68/39/79 67/23/79 64/22/79
f 68/44/80 71/40/80 70/19/80 69/18/80
f 71/9/81 74/12/81 73/8/81 72/7/81
f 74/41/82 66/45/82 65/4/82 75/3/82
f 54/31/83 65/31/83 64/22/83 52/21/83
f 69/18/84 56/17/84 55/20/84 67/23/84
f 58/5/85 73/8/85 75/3/85 59/2/85
f 72/7/86 62/6/86 61/16/86 70/19/86
f 51/46/87 60/43/87 53/42/87
f 79/1/88 84/2/88 100/3/88 90/4/88
f 83/5/89 87/6/89 97/7/89 98/8/89
f 96/9/90 93/10/90 91/11/90 99/12/90
f 76/13/91 78/14/91 82/15/91
f 86/16/92 81/17/92 94/18/92 95/19/92
f 80/20/93 77/21/93 89/22/93 92/23/93
f 76/24/94 82/25/94 88/26/94
f 76/27/95 88/28/95 85/29/95
f 77/21/96 78/30/96 79/31/96
f 80/20/97 81/32/97 82/33/97
f 83/34/98 84/2/98 85/35/98
f 86/16/99 87/36/99 88/37/99
f 89/22/100 90/31/100 91/38/100
f 92/23/101 93/39/101 94/32/101
f 95/19/102 96/40/102 97/36/102
f 98/34/103 99/41/103 100/3/103
f 77/21/104 80/20/104 82/15/104 78/14/104
f 81/17/105 86/16/105 88/26/105 82/25/105
f 87/6/106 83/5/106 85/29/106 88/28/106
f 84/2/107 79/1/107 78/42/107 85/43/107
f 91/38/108 93/39/108 92/23/108 89/22/108
f 93/44/109 96/40/109 95/19/109 94/18/109
f 96/9/110 99/12/110 98/8/110 97/7/110
f 99/41/111 91/45/111 90/4/111 100/3/111
f 79/31/112 90/31/112 89/22/112 77/21/112
f 94/18/113 81/17/113 80/20/113 92/23/113
f 83/5/114 98/8/114 100/3/114 84/2/114
f 97/7/115 87/6/115 86/16/115 95/19/115
f 76/46/116 85/43/116 78/42/116
f 104/1/117 109/2/117 125/3/117 115/4/117
f 108/5/118 112/6/118 122/7/118 123/8/118
f 121/9/119 118/10/119 116/11/119 124/12/119
f 101/13/120 103/14/120 107/15/120
f 111/16/121 106/17/121 119/18/121 120/19/121
f 105/20/122 102/21/122 114/22/122 117/23/122
f 101/24/123 107/25/123 113/26/123
f 101/27/124 113/28/124 110/29/124
f 102/21/125 103/30/125 104/31/125
f 105/20/126 106/32/126 107/33/126
f 108/34/127 109/2/127 110/35/127
f 111/16/128 112/36/128 113/37/128
f 114/22/129 115/31/129 116/38/129
f 117/23/130 118/39/130 119/32/130
f 120/19/131 121/40/131 122/36/131
f 123/34/132 124/41/132 125/3/132
f 102/21/133 105/20/133 107/15/133 103/14/133
f 106/17/134 111/16/134 113/26/134 107/25/134
f 112/6/135 108/5/135 110/29/135 113/28/135
f 109/2/136 104/1/136 103/42/136 110/43/136
f 116/38/137 118/39/137 117/23/137 114/22/137
f 118/44/138 121/40/138 120/19/138 119/18/138
f 121/9/139 124/12/139 123/8/139 122/7/139
f 124/41/140 116/45/140 115/4/140 125/3/140
f 104/31/141 115/31/141 114/22/141 102/21/141
f 119/18/142 106/17/142 105/20/142 117/23/142
f 108/5/143 123/8/143 125/3/143 109/2/143
f 122/7/144 112/6/144 111/16/144 120/19/144
f 101/46/145 110/43/145 103/42/145
f 129/1/146 134/2/146 150/3/146 140/4/146
f 133/5/147 137/6/147 147/7/147 148/8/147
f 146/9/148 143/10/148 141/11/148 149/12/148
f 126/13/149 128/14/149 132/15/149
f 136/16/150 131/17/150 144/18/150 145/19/150
f 130/20/151 127/21/151 139/22/151 142/23/151
f 126/24/152 132/25/152 138/26/152
f 126/27/153 138/28/153 135/29/153
f 127/21/154 128/30/154 129/31/154
f 130/20/155 131/32/155 132/33/155
f 133/34/156 134/2/156 135/35/156
f 136/16/157 137/36/157 138/37/157
f 139/22/158 140/31/158 141/38/158
f 142/23/159 143/39/159 144/32/159
f 145/19/160 146/40/160 147/36/160
f 148/34/161 149/41/161 150/3/161
f 127/21/162 130/20/162 132/15/162 128/14/162
f 131/17/163 136/16/163 138/26/163 132/25/163
f 137/6/164 133/5/164 135/29/164 138/28/164
f 134/2/165 129/1/165 128/42/165 135/43/165
f 141/38/166 143/39/166 142/23/166 139/22/166
f 143/44/167 146/40/167 145/19/167 144/18/167
f 146/9/168 149/12/168 148/8/168 147/7/168
f 149/41/169 141/45/169 140/4/169 150/3/169
f 129/31/170 140/31/170 139/22/170 127/21/170
f 144/18/171 131/17/171 130/20/171 142/23/171
f 133/5/172 148/8/172 150/3/172 134/2/172
f 147/7/173 137/6/173 136/16/173 145/19/173
f 126/46/174 135/43/174 128/42/174
f 154/1/175 159/2/175 175/3/175 165/4/175
f 158/5/176 162/6/176 172/7/176 173/8/176
f 171/9/177 168/10/177 166/11/177 174/12/177
f 151/13/178 153/14/178 157/15/178
f 161/16/179 156/17/179 169/18/179 170/19/179
f 155/20/180 152/21/180 164/22/180 167/23/180
f 151/24/181 157/25/181 163/26/181
f 151/27/182 163/28/182 160/29/182
f 152/21/183 153/30/183 154/31/183
f 155/20/184 156/32/184 157/33/184
f 158/34/185 159/2/185 160/35/185
f 161/16/186 162/36/186 163/37/186
f 164/22/187 165/31/187 166/38/187
f 167/23/188 168/39/188 169/32/188
f 170/19/189 171/40/189 172/36/189
f 173/34/190 174/41/190 175/3/190
f 152/21/191 155/20/191 157/15/191 153/14/191
f 156/17/192 161/16/192 163/26/192 157/25/192
f 162/6/193 158/5/193 160/29/193 163/28/193
f 159/2/194 154/1/194 153/42/194 160/43/194
f 166/38/195 168/39/195 167/23/195 164/22/195
f 168/44/196 171/40/196 170/19/196 169/18/196
f 171/9/197 174/12/197 173/8/197 172/7/197
f 174/41/198 166/45/198 165/4/198 175/3/198
f 154/31/199 165/31/199 164/22/199 152/21/199
f 169/18/200 156/17/200 155/20/200 167/23/200
f 158/5/201 173/8/201 175/3/201 159/2/201
f 172/7/202 162/6/202 161/16/202 170/19/202
f 151/46/203 160/43/203 153/42/203
f 179/1/204 184/2/204 200/3/204 190/4/204
f 183/5/205 187/6/205 197/7/205 198/8/205
f 196/9/206 193/10/206 191/11/206 199/12/206
f 176/13/207 178/14/207 182/15/207
f 186/16/208 181/17/208 194/18/208 195/19/208
f 180/20/209 177/21/209 189/22/209 192/23/209
f 176/24/210 182/25/210 188/26/210
f 176/27/211 188/28/211 185/29/211
f 177/21/212 178/30/212 179/31/212
f 180/20/213 181/32/213 182/33/213
f 183/34/214 184/2/214 185/35/214
f 186/16/215 187/36/215 188/37/215
f 189/22/216 190/31/216 191/38/216
f 192/23/217 193/39/217 194/32/217
f 195/19/218 196/40/218 197/36/218
f 198/34/219 199/41/219 200/3/219
f 177/21/220 180/20/220 182/15/220 178/14/220
f 181/17/221 186/16/221 188/26/221 182/25/221
f 187/6/222 183/5/222 185/29/222 188/28/222
f 184/2/223 179/1/223 178/42/223 185/43/223
f 191/38/224 193/39/224 192/23/224 189/22/224
f 193/44/225 196/40/225 195/19/225 194/18/225
f 196/9/226 199/12/226 198/8/226 197/7/226
f 199/41/227 191/45/227 190/4/227 200/3/227
f 179/31/228 190/31/228 189/22/228 177/21/228
f 194/18/229 181/17/229 180/20/229 192/23/229
f 183/5/230 198/8/230 200/3/230 184/2/230
f 197/7/231 187/6/231 186/16/231 195/19/231
f 176/46/232 185/43/232 178/42/232
f 204/1/233 215/4/233 225/3/233 209/2/233
f 208/5/234 223/8/234 222/7/234 212/6/234
f 221/9/235 224/12/235 216/11/235 218/10/235
f 201/13/236 207/15/236 203/14/236
f 211/16/237 220/19/237 219/18/237 206/17/237
f 205/20/238 217/23/238 214/22/238 202/21/238
f 201/24/239 213/26/239 207/25/239
f 201/27/240 210/29/240 213/28/240
f 202/21/241 204/31/241 203/30/241
f 205/20/242 207/33/242 206/32/242
f 208/34/243 210/35/243 209/2/243
f 211/16/244 213/37/244 212/36/244
f 214/22/245 216/38/245 215/31/245
f 217/23/246 219/32/246 218/39/246
f 220/19/247 222/36/247 221/40/247
f 223/34/248 225/3/248 224/41/248
f 202/21/249 203/14/249 207/15/249 205/20/249
f 206/17/250 207/25/250 213/26/250 211/16/250
f 212/6/251 213/28/251 210/29/251 208/5/251
f 209/2/252 210/43/252 203/42/252 204/1/252
f 216/38/253 214/22/253 217/23/253 218/39/253
f 218/44/254 219/18/254 220/19/254 221/40/254
f 221/9/255 222/7/255 223/8/255 224/12/255
f 224/41/256 225/3/256 215/4/256 216/45/256
f 204/31/257 202/21/257 214/22/257 215/31/257
f 219/18/258 217/23/258 205/20/258 206/17/258
f 208/5/259 209/2/259 225/3/259 223/8/259
f 222/7/260 220/19/260 211/16/260 212/6/260
f 201/46/261 203/42/261 210/43/261
f 229/1/262 240/4/262 250/3/262 234/2/262
f 233/5/263 248/8/263 247/7/263 237/6/263
f 246/9/264 249/12/264 241/11/264 243/10/264
f 226/13/265 232/15/265 228/14/265
f 236/16/266 245/19/266 244/18/266 231/17/266
f 230/20/267 242/23/267 239/22/267 227/21/267
f 226/24/268 238/26/268 232/25/268
f 226/27/269 235/29/269 238/28/269
f 227/21/270 229/31/270 228/30/270
f 230/20/271 232/33/271 231/32/271
f 233/34/272 235/35/272 234/2/272
f 236/16/273 238/37/273 237/36/273
f 239/22/274 241/38/274 240/31/274
f 242/23/275 244/32/275 243/39/275
f 245/19/276 247/36/276 246/40/276
f 248/34/277 250/3/277 249/41/277
f 227/21/278 228/14/278 232/15/278 230/20/278
f 231/17/279 232/25/279 238/26/279 236/16/279
f 237/6/280 238/28/280 235/29/280 233/5/280
f 234/2/281 235/43/281 228/42/281 229/1/281
f 241/38/282 239/22/282 242/23/282 243/39/282
f 243/44/283 244/18/283 245/19/283 246/40/283
f 246/9/284 247/7/284 248/8/284 249/12/284
f 249/41/285 250/3/285 240/4/285 241/45/285
f 229/31/286 227/21/286 239/22/286 240/31/286
f 244/18/287 242/23/287 230/20/287 231/17/287
f 233/5/288 234/2/288 250/3/288 248/8/288
f 247/7/289 245/19/289 236/16/289 237/6/289
f 226/46/290 228/42/290 235/43/290
f 254/1/291 265/4/291 275/3/291 259/2/291
f 258/5/292 273/8/292 272/7/292 262/6/292
f 271/9/293 274/12/293 266/11/293 268/10/293
f 251/13/294 257/15/294 253/14/294
f 261/16/295 270/19/295 269/18/295 256/17/295
f 255/20/296 267/23/296 264/22/296 252/21/296
f 251/24/297 263/26/297 257/25/297
f 251/27/298 260/29/298 263/28/298
f 252/21/299 254/31/299 253/30/299
f 255/20/300 257/33/300 256/32/300
f 258/34/301 260/35/301 259/2/301
f 261/16/302 263/37/302 262/36/302
f 264/22/303 266/38/303 265/31/303
f 267/23/304 269/32/304 268/39/304
f 270/19/305 272/36/305 271/40/305
f 273/34/306 275/3/306 274/41/306
f 252/21/307 253/14/307 257/15/307 255/20/307
f 256/17/308 257/25/308 263/26/308 261/16/308
f 262/6/309 263/28/309 260/29/309 258/5/309
f 259/2/310 260/43/310 253/42/310 254/1/310
f 266/38/311 264/22/311 267/23/311 268/39/311
f 268/44/312 269/18/312 270/19/312 271/40/312
f 271/9/313 272/7/313 273/8/313 274/12/313
f 274/41/314 275/3/314 265/4/314 266/45/314
f 254/31/315 252/21/315 264/22/315 265/31/315
f 269/18/316 267/23/316 255/20/316 256/17/316
f 258/5/317 259/2/317 275/3/317 273/8/317
f 272/7/318 270/19/318 261/16/318 262/6/318
f 251/46/319 253/42/319 260/43/319
f 279/1/320 290/4/320 300/3/320 284/2/320
f 283/5/321 298/8/321 297/7/321 287/6/321
f 296/9/322 299/12/322 291/11/322 293/10/322
f 276/13/323 282/15/323 278/14/323
f 286/16/324 295/19/324 294/18/324 281/17/324
f 280/20/325 292/23/325 289/22/325 277/21/325
f 276/24/326 288/26/326 282/25/326
f 276/27/327 285/29/327 288/28/327
f 277/21/328 279/31/328 278/30/328
f 280/20/329 282/33/329 281/32/329
f 283/34/330 285/35/330 284/2/330
f 286/16/331 288/37/331 287/36/331
f 289/22/332 291/38/332 290/31/332
f 292/23/333 294/32/333 293/39/333
f 295/19/334 297/36/334 296/40/334
f 298/34/335 300/3/335 299/41/335
f 277/21/336 278/14/336 282/15/336 280/20/336
f 281/17/337 282/25/337 288/26/337 286/16/337
f 287/6/338 288/28/338 285/29/338 283/5/338
f 284/2/339 285/43/339 278/42/339 279/1/339
f 291/38/340 289/22/340 292/23/340 293/39/340
f 293/44/341 294/18/341 295/19/341 296/40/341
f 296/9/342 297/7/342 298/8/342 299/12/342
f 299/41/343 300/3/343 290/4/343 291/45/343
f 279/31/344 277/21/344 289/22/344 290/31/344
f 294/18/345 292/23/345 280/20/345 281/17/345
f 283/5/346 284/2/346 300/3/346 298/8/346
f 297/7/347 295/19/347 286/16/347 287/6/347
f 276/46/348 278/42/348 285/43/348
f 304/1/349 315/4/349 325/3/349 309/2/349
f 308/5/350 323/8/350 322/7/350 312/6/350
f 321/9/351 324/12/351 316/11/351 318/10/351
f 301/13/352 307/15/352 303/14/352
f 311/16/353 320/19/353 319/18/353 306/17/353
f 305/20/354 317/23/354 314/22/354 302/21/354
f 301/24/355 313/26/355 307/25/355
f 301/27/356 310/29/356 313/28/356
f 302/21/357 304/31/357 303/30/357
f 305/20/358 307/33/358 306/32/358
f 308/34/359 310/35/359 309/2/359
f 311/16/360 313/37/360 312/36/360
f 314/22/361 316/38/361 315/31/361
f 317/23/362 319/32/362 318/39/362
f 320/19/363 322/36/363 321/40/363
f 323/34/364 325/3/364 324/41/364
f 302/21/365 303/14/365 307/15/365 305/20/365
f 306/17/366 307/25/366 313/26/366 311/16/366
f 312/6/367 313/28/367 310/29/367 308/5/367
f 309/2/368 310/43/368 303/42/368 304/1/368
f 316/38/369 314/22/369 317/23/369 318/39/369
f 318/44/370 319/18/370 320/19/370 321/40/370
f 321/9/371 322/7/371 323/8/371 324/12/371
f 324/41/372 325/3/372 315/4/372 316/45/372
f 304/31/373 302/21/373 314/22/373 315/31/373
f 319/18/374 317/23/374 305/20/374 306/17/374
f 308/5/375 309/2/375 325/3/375 323/8/375
f 322/7/376 320/19/376 311/16/376 312/6/376
f 301/46/377 303/42/377 310/43/377
f 329/1/378 340/4/378 350/3/378 334/2/378
f 333/5/379 348/8/379 347/7/379 337/6/379
f 346/9/380 349/12/380 341/11/380 343/10/380
f 326/13/381 332/15/381 328/14/381
f 336/16/382 345/19/382 344/18/382 331/17/382
f 330/20/383 342/23/383 339/22/383 327/21/383
f 326/24/384 338/26/384 332/25/384
f 326/27/385 335/29/385 338/28/385
f 327/21/386 329/31/386 328/30/386
f 330/20/387 332/33/387 331/32/387
f 333/34/388 335/35/388 334/2/388
f 336/16/389 338/37/389 337/36/389
f 339/22/390 341/38/390 340/31/390
f 342/23/391 344/32/391 343/39/391
f 345/19/392 347/36/392 346/40/392
f 348/34/393 350/3/393 349/41/393
f 327/21/394 328/14/394 332/15/394 330/20/394
f 331/17/395 332/25/395 338/26/395 336/16/395
f 337/6/396 338/28/396 335/29/396 333/5/396
f 334/2/397 335/43/397 328/42/397 329/1/397
f 341/38/398 339/22/398 342/23/398 343/39/398
f 343/44/399 344/18/399 345/19/399 346/40/399
f 346/9/400 347/7/400 348/8/400 349/12/400
f 349/41/401 350/3/401 340/4/401 341/45/401
f 329/31/402 327/21/402 339/22/402 340/31/402
f 344/18/403 342/23/403 330/20/403 331/17/403
f 333/5/404 334/2/404 350/3/404 348/8/404
f 347/7/405 345/19/405 336/16/405 337/6/405
f 326/46/406 328/42/406 335/43/406
f 354/1/407 365/4/407 375/3/407 359/2/407
f 358/5/408 373/8/408 372/7/408 362/6/408
f 371/9/409 374/12/409 366/11/409 368/10/409
f 351/13/410 357/15/410 353/14/410
f 361/16/411 370/19/411 369/18/411 356/17/411
f 355/20/412 367/23/412 364/22/412 352/21/412
f 351/24/413 363/26/413 357/25/413
f 351/27/414 360/29/414 363/28/414
f 352/21/415 354/31/415 353/30/415
f 355/20/416 357/33/416 356/32/416
f 358/34/417 360/35/417 359/2/417
f 361/16/418 363/37/418 362/36/418
f 364/22/419 366/38/419 365/31/419
f 367/23/420 369/32/420 368/39/420
f 370/19/421 372/36/421 371/40/421
f 373/34/422 375/3/422 374/41/422
f 352/21/423 353/14/423 357/15/423 355/20/423
f 356/17/424 357/25/424 363/26/424 361/16/424
f 362/6/425 363/28/425 360/29/425 358/5/425
f 359/2/426 360/43/426 353/42/426 354/1/426
f 366/38/427 364/22/427 367/23/427 368/39/427
f 368/44/428 369/18/428 370/19/428 371/40/428
f 371/9/429 372/7/429 373/8/429 374/12/429
f 374/41/430 375/3/430 365/4/430 366/45/430
f 354/31/431 352/21/431 364/22/431 365/31/431
f 369/18/432 367/23/432 355/20/432 356/17/432
f 358/5/433 359/2/433 375/3/433 373/8/433
f 372/7/434 370/19/434 361/16/434 362/6/434
f 351/46/435 353/42/435 360/43/435
f 379/1/436 390/4/436 400/3/436 384/2/436
f 383/5/437 398/8/437 397/7/437 387/6/437
f 396/9/438 399/12/438 391/11/438 393/10/438
f 376/13/439 382/15/439 378/14/439
f 386/16/440 395/19/440 394/18/440 381/17/440
f 380/20/441 392/23/441 389/22/441 377/21/441
f 376/24/442 388/26/442 382/25/442
f 376/27/443 385/29/443 388/28/443
f 377/21/444 379/31/444 378/30/444
f 380/20/445 382/33/445 381/32/445
f 383/34/446 385/35/446 384/2/446
f 386/16/447 388/37/447 387/36/447
f 389/22/448 391/38/448 390/31/448
f 392/23/449 394/32/449 393/39/449
f 395/19/450 397/36/450 396/40/450
f 398/34/451 400/3/451 399/41/451
f 377/21/452 378/14/452 382/15/452 380/20/452
f 381/17/453 382/25/453 388/26/453 386/16/453
f 387/6/454 388/28/454 385/29/454 383/5/454
f 384/2/455 385/43/455 378/42/455 379/1/455
f 391/38/456 389/22/456 392/23/456 393/39/456
f 393/44/457 394/18/457 395/19/457 396/40/457
f 396/9/458 397/7/458 398/8/458 399/12/458
f 399/41/459 400/3/459 390/4/459 391/45/459
f 379/31/460 377/21/460 389/22/460 390/31/460
f 394/18/461 392/23/461 380/20/461 381/17/461
f 383/5/462 384/2/462 400/3/462 398/8/462
f 397/7/463 395/19/463 386/16/463 387/6/463
f 376/46/464 378/42/464 385/43/464
