# Blender 4.4.0
# www.blender.org
mtllib hana.mtl
o 立方体
v 0.000000 -0.022483 0.113170
v -0.276005 1.068336 0.299353
v -0.282127 0.835728 0.420299
v -0.157055 1.068336 0.398424
v -0.298306 1.068336 -0.034669
v -0.193582 1.068336 -0.148673
v -0.320452 0.835728 -0.153727
v 0.298306 1.068336 0.261009
v 0.193582 1.068336 0.375013
v 0.320452 0.835728 0.380067
v 0.157055 1.068336 -0.172084
v 0.276005 1.068336 -0.073013
v 0.282127 0.835728 -0.193958
v -0.210603 1.202978 0.228155
v -0.091653 1.202978 0.327226
v -0.059964 1.313112 0.178448
v -0.224020 1.202978 0.027203
v -0.068110 1.313112 0.056443
v -0.119296 1.202978 -0.086802
v 0.091653 1.202978 -0.100886
v 0.059964 1.313112 0.047892
v 0.210603 1.202978 -0.001815
v 0.224020 1.202978 0.199137
v 0.068110 1.313112 0.169897
v 0.119296 1.202978 0.313142
v -0.013215 -0.018189 0.113170
v 0.395122 1.033464 0.280553
v 0.246938 0.853606 0.400822
v 0.485801 0.967581 0.387328
v 0.395122 1.033464 -0.054213
v 0.485801 0.967581 -0.160987
v 0.246938 0.853606 -0.174482
v 0.860783 0.695141 0.280553
v 0.770104 0.761023 0.387328
v 0.735519 0.498631 0.400822
v 0.770104 0.761023 -0.160987
v 0.860783 0.695141 -0.054213
v 0.735519 0.498631 -0.174482
v 0.530893 1.101247 0.213870
v 0.621573 1.035364 0.320645
v 0.719906 1.100054 0.174308
v 0.530893 1.101247 0.012470
v 0.719906 1.100054 0.052032
v 0.621573 1.035364 -0.094305
v 0.792613 0.911096 -0.094305
v 0.823750 1.024606 0.052032
v 0.883293 0.845213 0.012470
v 0.883293 0.845213 0.213870
v 0.823750 1.024606 0.174308
v 0.792613 0.911096 0.320645
v -0.021359 -0.006965 0.112290
v 0.917384 0.610913 0.306503
v 0.685567 0.557021 0.416633
v 0.946103 0.508612 0.419081
v 0.935426 0.597805 -0.027519
v 0.975654 0.487142 -0.128016
v 0.716573 0.534494 -0.157392
v 1.094414 0.064103 0.337524
v 1.054186 0.174766 0.438021
v 0.871311 -0.016703 0.449181
v 1.083737 0.153296 -0.109076
v 1.112456 0.050995 0.003502
v 0.902316 -0.039230 -0.124844
v 1.070417 0.583512 0.249013
v 1.099136 0.481212 0.361592
v 1.224423 0.470146 0.222131
v 1.081271 0.575626 0.048061
v 1.231013 0.465358 0.100126
v 1.121499 0.464964 -0.052436
v 1.186524 0.264117 -0.041042
v 1.270491 0.343417 0.107044
v 1.215243 0.161816 0.071536
v 1.204388 0.169702 0.272489
v 1.263901 0.348205 0.229049
v 1.164160 0.280365 0.372986
v -0.021288 0.006857 0.110869
v 1.089197 -0.036217 0.367187
v 0.864457 0.060451 0.461630
v 1.046181 -0.131415 0.481429
v 1.114058 -0.070483 0.035109
v 1.086901 -0.187539 -0.062484
v 0.907181 0.001565 -0.109055
v 0.909020 -0.581206 0.409933
v 0.936177 -0.464150 0.507526
v 0.675412 -0.511362 0.506479
v 0.976897 -0.520273 -0.036387
v 0.933881 -0.615471 0.077855
v 0.718137 -0.570248 -0.064206
v 1.199721 -0.150387 0.320020
v 1.156705 -0.245585 0.434261
v 1.258851 -0.333476 0.303456
v 1.214678 -0.171001 0.120237
v 1.267932 -0.345992 0.182162
v 1.187521 -0.288058 0.022643
v 1.121341 -0.488236 0.038343
v 1.227752 -0.467526 0.191694
v 1.078325 -0.583434 0.152585
v 1.063368 -0.562819 0.352368
v 1.218671 -0.455011 0.312989
v 1.090525 -0.445763 0.449962
v -0.013029 0.017942 0.109456
v 0.844243 -0.658146 0.439182
v 0.714559 -0.444436 0.518444
v 0.747407 -0.705461 0.550304
v 0.862068 -0.713450 0.109498
v 0.776602 -0.796045 0.010312
v 0.745192 -0.539479 -0.048128
v 0.376161 -0.991707 0.469830
v 0.461627 -0.909112 0.569016
v 0.223438 -0.794415 0.550600
v 0.490822 -0.999696 0.029024
v 0.393986 -1.047012 0.140146
v 0.254071 -0.889458 -0.015971
v 0.868895 -0.817178 0.399482
v 0.772059 -0.864493 0.510605
v 0.809902 -1.000627 0.386895
v 0.879619 -0.850450 0.201139
v 0.816413 -1.020828 0.266475
v 0.794153 -0.933045 0.101953
v 0.622224 -1.055564 0.113210
v 0.712028 -1.095213 0.273309
v 0.525387 -1.102880 0.224333
v 0.514664 -1.069608 0.422676
v 0.705518 -1.075013 0.393730
v 0.600129 -0.987013 0.521862
v 0.000229 0.022012 0.108596
v 0.277071 -1.014817 0.494699
v 0.293731 -0.762762 0.565145
v 0.165103 -0.991952 0.599124
v 0.276721 -1.082923 0.166935
v 0.164529 -1.103503 0.062276
v 0.293129 -0.879803 0.001874
v -0.298488 -1.008953 0.494096
v -0.186296 -0.988372 0.598756
v -0.310157 -0.756609 0.564513
v -0.186870 -1.099923 0.061908
v -0.298839 -1.077059 0.166332
v -0.310759 -0.873651 0.001241
v 0.205634 -1.159489 0.456730
v 0.093665 -1.136624 0.561154
v 0.050863 -1.273797 0.440240
v 0.205423 -1.200462 0.259542
v 0.050735 -1.298674 0.320521
v 0.093231 -1.221043 0.154883
v -0.118176 -1.218889 0.154661
v -0.077617 -1.297366 0.320387
v -0.230144 -1.196025 0.259086
v -0.229934 -1.155051 0.456274
v -0.077489 -1.272490 0.440106
v -0.117741 -1.134471 0.560933
v 0.013369 0.017494 0.108622
v -0.393399 -0.968561 0.512309
v -0.235593 -0.771657 0.583709
v -0.475971 -0.880307 0.609043
v -0.416049 -1.036288 0.185250
v -0.513069 -0.991238 0.073349
v -0.274517 -0.888048 0.021648
v -0.854523 -0.626287 0.473366
v -0.757503 -0.671337 0.585267
v -0.719413 -0.412536 0.542848
v -0.794601 -0.782268 0.049573
v -0.877173 -0.694014 0.146306
v -0.758338 -0.528927 -0.019212
v -0.534055 -1.045194 0.469665
v -0.616626 -0.956940 0.566399
v -0.725289 -1.047547 0.442902
v -0.547681 -1.085939 0.272901
v -0.733562 -1.072285 0.323440
v -0.644701 -1.040889 0.161001
v -0.814075 -0.915170 0.146696
v -0.836395 -0.995956 0.314756
v -0.896647 -0.826916 0.243430
v -0.883020 -0.786170 0.440194
v -0.828122 -0.971218 0.434218
v -0.786000 -0.831220 0.552095
v 0.021320 0.006134 0.109522
v -0.908377 -0.537233 0.485216
v -0.669103 -0.467688 0.566969
v -0.928370 -0.413620 0.576234
v -0.948843 -0.591548 0.157374
v -0.994649 -0.502583 0.039259
v -0.738645 -0.561031 0.003564
v -1.077323 0.008587 0.415640
v -1.031517 -0.080378 0.533755
v -0.846365 0.104997 0.493969
v -1.097796 -0.169341 -0.003220
v -1.117789 -0.045728 0.087798
v -0.915906 0.011655 -0.069437
v -1.064662 -0.518408 0.433296
v -1.084655 -0.394795 0.524314
v -1.218971 -0.409205 0.393853
v -1.089007 -0.551085 0.236062
v -1.233751 -0.429044 0.274105
v -1.134813 -0.462120 0.117946
v -1.196868 -0.261637 0.092391
v -1.271427 -0.307324 0.258590
v -1.216861 -0.138023 0.183408
v -1.192516 -0.105347 0.380643
v -1.256647 -0.287485 0.378337
v -1.146710 -0.194311 0.498758
v 0.021012 -0.007684 0.110951
v -1.069089 0.112682 0.423876
v -0.839471 0.031817 0.521387
v -1.017475 0.227976 0.513359
v -1.116011 0.079635 0.094066
v -1.094328 0.173849 -0.026838
v -0.920107 -0.024975 -0.045399
v -0.880891 0.650619 0.343199
v -0.902573 0.556405 0.464104
v -0.642009 0.596231 0.436740
v -0.979426 0.502277 -0.076094
v -0.927812 0.617572 0.013390
v -0.722646 0.539439 -0.130046
v -1.181382 0.217537 0.361660
v -1.129768 0.332831 0.451144
v -1.239629 0.394839 0.312025
v -1.209611 0.197655 0.163242
v -1.256768 0.382768 0.191559
v -1.187928 0.291869 0.042337
v -1.118802 0.489456 0.012705
v -1.214799 0.502730 0.173568
v -1.067188 0.604751 0.102188
v -1.038959 0.624632 0.300607
v -1.197660 0.514801 0.294034
v -1.060641 0.530419 0.421511
v 0.012565 -0.018627 0.112355
v -0.813502 0.730327 0.351966
v -0.680937 0.534057 0.464557
v -0.708893 0.796835 0.444689
v -0.853028 0.718195 0.019763
v -0.773632 0.776965 -0.099428
v -0.748863 0.513210 -0.106342
v -0.341045 1.051993 0.284006
v -0.420441 0.993223 0.403197
v -0.185226 0.871556 0.393252
v -0.485181 0.973354 -0.140920
v -0.380571 1.039862 -0.048196
v -0.253151 0.850709 -0.177647
v -0.839162 0.878577 0.282408
v -0.734553 0.945086 0.375131
v -0.779290 1.054235 0.229003
v -0.862942 0.871279 0.082550
v -0.793727 1.049804 0.107662
v -0.783546 0.930049 -0.036642
v -0.610009 1.048199 -0.061604
v -0.688368 1.121537 0.092507
v -0.505400 1.114707 0.031120
v -0.481620 1.122006 0.230978
v -0.673930 1.125968 0.213847
v -0.561016 1.063236 0.350169
v 0.000000 0.031455 0.113170
v -0.230409 1.048109 0.278831
v -0.246799 0.842258 0.380067
v -0.143726 1.048484 0.350076
v -0.250387 1.048109 -0.020390
v -0.173944 1.048484 -0.102526
v -0.280089 0.842258 -0.118549
v 0.250387 1.048109 0.246730
v 0.173944 1.048484 0.328867
v 0.280089 0.842258 0.344889
v 0.143726 1.048484 -0.123736
v 0.230409 1.048109 -0.052491
v 0.246799 0.842258 -0.153727
v -0.174182 1.166675 0.211881
v -0.081199 1.167296 0.288152
v -0.047173 1.262987 0.163178
v -0.185759 1.166675 0.038491
v -0.053402 1.262987 0.069877
v -0.103740 1.167296 -0.049465
v 0.081199 1.167296 -0.061812
v 0.047173 1.262987 0.063162
v 0.174182 1.166675 0.014459
v 0.185759 1.166675 0.187849
v 0.053402 1.262987 0.156463
v 0.103740 1.167296 0.275805
v 0.018489 0.025447 0.113170
v 0.421144 0.989555 0.263114
v 0.281462 0.836595 0.363033
v 0.487497 0.941810 0.339975
v 0.421144 0.989555 -0.036774
v 0.487497 0.941810 -0.113635
v 0.281462 0.836595 -0.136693
v 0.810982 0.706321 0.263114
v 0.745070 0.754673 0.339975
v 0.708672 0.526208 0.363033
v 0.745070 0.754673 -0.113635
v 0.810982 0.706321 -0.036774
v 0.708672 0.526208 -0.136693
v 0.539831 1.049879 0.200058
v 0.611143 0.998836 0.282354
v 0.701591 1.051402 0.159925
v 0.539831 1.049879 0.026282
v 0.701591 1.051402 0.066415
v 0.611143 0.998836 -0.056014
v 0.761096 0.889889 -0.056014
v 0.783139 0.992154 0.066415
v 0.831677 0.837840 0.026282
v 0.831677 0.837840 0.200058
v 0.783139 0.992154 0.159925
v 0.761096 0.889889 0.282354
v 0.029882 0.009744 0.114402
v 0.913520 0.559446 0.290836
v 0.705473 0.521532 0.381228
v 0.934876 0.484914 0.371947
v 0.929682 0.547703 -0.008385
v 0.959323 0.467152 -0.080655
v 0.732406 0.501964 -0.117387
v 1.061724 0.101673 0.316806
v 1.032797 0.182456 0.389106
v 0.867885 0.019873 0.409688
v 1.057244 0.164694 -0.063497
v 1.077887 0.089930 0.017585
v 0.894818 0.000306 -0.088928
v 1.048183 0.536173 0.235827
v 1.071310 0.456277 0.322691
v 1.181817 0.440964 0.206559
v 1.057548 0.529368 0.062437
v 1.186857 0.437303 0.113257
v 1.089546 0.443027 -0.014926
v 1.146553 0.266944 -0.004936
v 1.217859 0.341544 0.118690
v 1.168500 0.186663 0.081879
v 1.159134 0.193467 0.255269
v 1.212819 0.345205 0.211992
v 1.128317 0.280193 0.332681
v 0.029782 -0.009594 0.116390
v 1.056670 -0.076203 0.351298
v 0.861574 0.018679 0.427629
v 1.025729 -0.145849 0.433651
v 1.078941 -0.106898 0.053818
v 1.059416 -0.192279 -0.016317
v 0.898685 -0.032471 -0.068084
v 0.905832 -0.532451 0.387083
v 0.926068 -0.447300 0.457295
v 0.696275 -0.481309 0.466845
v 0.959755 -0.493730 0.007327
v 0.928103 -0.563146 0.089603
v 0.733386 -0.532459 -0.028869
v 1.154658 -0.176162 0.305382
v 1.121683 -0.250961 0.393594
v 1.208146 -0.332707 0.285081
v 1.167563 -0.193949 0.133001
v 1.215090 -0.342279 0.192322
v 1.146812 -0.285595 0.057942
v 1.088791 -0.461093 0.071706
v 1.183537 -0.437719 0.199808
v 1.054640 -0.535513 0.159791
v 1.041735 -0.517726 0.332172
v 1.176593 -0.428147 0.292567
v 1.063663 -0.426459 0.407359
v 0.018228 -0.025102 0.118367
v 0.795341 -0.672041 0.421161
v 0.689511 -0.477871 0.484327
v 0.724989 -0.707015 0.501271
v 0.811308 -0.721583 0.125826
v 0.749142 -0.781953 0.054546
v 0.716119 -0.560428 -0.007814
v 0.403476 -0.951288 0.446819
v 0.466078 -0.891518 0.518223
v 0.260080 -0.783889 0.512444
v 0.490230 -0.966457 0.071498
v 0.419444 -1.000831 0.151483
v 0.286688 -0.866446 0.020303
v 0.818158 -0.812175 0.381875
v 0.742820 -0.849896 0.467694
v 0.770414 -0.970987 0.365183
v 0.827411 -0.840884 0.210737
v 0.775393 -0.986435 0.273093
v 0.760837 -0.905796 0.134462
v 0.610105 -1.013209 0.144331
v 0.693421 -1.044850 0.278460
v 0.534047 -1.049938 0.229945
v 0.524795 -1.021230 0.401083
v 0.688442 -1.029402 0.370550
v 0.592088 -0.957309 0.477563
v -0.000320 -0.030795 0.119569
v 0.230400 -0.998084 0.473461
v 0.255698 -0.776456 0.529435
v 0.148736 -0.981982 0.548705
v 0.230086 -1.059094 0.179845
v 0.148261 -1.074265 0.104582
v 0.255175 -0.878122 0.040161
v -0.251441 -0.993174 0.472956
v -0.169624 -0.978738 0.548372
v -0.272336 -0.771077 0.528882
v -0.170099 -1.071022 0.104248
v -0.251755 -1.054185 0.179340
v -0.272859 -0.872743 0.039608
v 0.168567 -1.126375 0.435782
v 0.080956 -1.109347 0.516391
v 0.037579 -1.227509 0.415946
v 0.168385 -1.161729 0.265640
v 0.037481 -1.246533 0.324392
v 0.080602 -1.178186 0.185099
v -0.104740 -1.176298 0.184905
v -0.063312 -1.245506 0.324286
v -0.192338 -1.158054 0.265262
v -0.192156 -1.122700 0.435404
v -0.063215 -1.226482 0.415840
v -0.104386 -1.107459 0.516197
v -0.018705 -0.024475 0.119534
v -0.420093 -0.928484 0.488009
v -0.272419 -0.761829 0.545545
v -0.480604 -0.864617 0.557646
v -0.440383 -0.989155 0.195025
v -0.511295 -0.956387 0.114478
v -0.306230 -0.862929 0.057322
v -0.806132 -0.641942 0.455407
v -0.735667 -0.675294 0.536105
v -0.695467 -0.447817 0.509817
v -0.766358 -0.767065 0.092937
v -0.826422 -0.702613 0.162422
v -0.729278 -0.548918 0.021594
v -0.543383 -0.997485 0.446295
v -0.608440 -0.929171 0.520889
v -0.707495 -1.003260 0.417777
v -0.555140 -1.032642 0.276519
v -0.713822 -1.022178 0.326420
v -0.631333 -0.997627 0.190309
v -0.779825 -0.887408 0.177768
v -0.794575 -0.962238 0.319600
v -0.844143 -0.818127 0.252111
v -0.832385 -0.782970 0.421887
v -0.788248 -0.943319 0.410957
v -0.756931 -0.818952 0.508348
v -0.029828 -0.008582 0.118274
v -0.905058 -0.490106 0.459191
v -0.690997 -0.439634 0.526436
v -0.920117 -0.400221 0.524643
v -0.941308 -0.538762 0.165506
v -0.974948 -0.473819 0.080414
v -0.751402 -0.520714 0.037046
v -1.046495 -0.033161 0.400944
v -1.013566 -0.098310 0.486158
v -0.845992 0.061117 0.462606
v -1.068398 -0.171908 0.041929
v -1.082744 -0.081818 0.107259
v -0.906398 -0.019963 -0.026785
v -1.042890 -0.475256 0.409356
v -1.059272 -0.378913 0.479451
v -1.177222 -0.384795 0.369969
v -1.063896 -0.503451 0.239174
v -1.188525 -0.399967 0.278393
v -1.100173 -0.433813 0.148080
v -1.154577 -0.258048 0.125675
v -1.218111 -0.304381 0.266209
v -1.169780 -0.161366 0.195568
v -1.148775 -0.133171 0.365750
v -1.206808 -0.289210 0.357784
v -1.113676 -0.203148 0.457046
v -0.029397 0.010750 0.116275
v -1.037307 0.147843 0.398130
v -0.838469 0.065766 0.479486
v -1.000157 0.231956 0.462433
v -1.079340 0.118239 0.102682
v -1.063736 0.187177 0.015538
v -0.908512 0.016435 -0.012841
v -0.879752 0.598188 0.330590
v -0.896058 0.529507 0.417808
v -0.665811 0.559284 0.405472
v -0.959637 0.484728 -0.029087
v -0.921785 0.568584 0.035142
v -0.735854 0.509953 -0.086856
v -1.137153 0.238741 0.339224
v -1.097525 0.329036 0.408071
v -1.190294 0.389166 0.290975
v -1.161510 0.221587 0.168020
v -1.203400 0.379935 0.198850
v -1.144952 0.295634 0.074712
v -1.084348 0.468860 0.048733
v -1.170443 0.474140 0.184722
v -1.043559 0.558731 0.117458
v -1.019202 0.575886 0.288661
v -1.157336 0.483371 0.276847
v -1.036921 0.502263 0.382092
v -0.017578 0.026060 0.114310
v -0.765792 0.739125 0.328394
v -0.657915 0.559295 0.422816
v -0.689829 0.787904 0.395029
v -0.801200 0.728257 0.030803
v -0.743387 0.771466 -0.055108
v -0.716917 0.541186 -0.073084
v -0.370265 1.008415 0.271500
v -0.428498 0.965828 0.357439
v -0.224470 0.854401 0.360468
v -0.482055 0.949390 -0.092699
v -0.405673 0.997547 -0.026091
v -0.283472 0.836291 -0.135432
v -0.789787 0.868914 0.262967
v -0.708435 0.921419 0.334302
v -0.741665 1.019887 0.211286
v -0.810304 0.862617 0.090522
v -0.752706 1.016498 0.118492
v -0.748386 0.909158 -0.001476
v -0.596245 1.012741 -0.023361
v -0.669968 1.072830 0.106591
v -0.514199 1.064217 0.047929
v -0.493681 1.070514 0.220375
v -0.658927 1.076218 0.199384
v -0.556294 1.025003 0.312418
vn 0.0597 0.4438 0.8941
vn 0.8853 0.4613 -0.0591
vn -0.0000 1.0000 -0.0000
vn -0.9412 -0.3319 0.0628
vn -0.0597 0.4438 -0.8941
vn -0.8853 0.4613 0.0591
vn -0.0632 -0.3178 -0.9461
vn 0.9412 -0.3319 -0.0628
vn -0.5908 0.3844 0.7094
vn -0.6799 0.3844 -0.6245
vn 0.6799 0.3844 0.6245
vn 0.5908 0.3844 -0.7094
vn -0.4053 0.7739 0.4866
vn -0.4664 0.7739 -0.4284
vn 0.4053 0.7739 -0.4866
vn 0.4664 0.7739 0.4284
vn -0.9959 0.0608 0.0665
vn -0.0665 0.0579 -0.9961
vn 0.9959 0.0608 -0.0665
vn 0.0665 0.0579 0.9961
vn -0.5814 0.8127 0.0388
vn -0.0401 0.7990 -0.6000
vn 0.5814 0.8127 -0.0388
vn 0.0401 0.7990 0.6000
vn -0.5201 0.5828 0.6244
vn -0.5984 0.5828 -0.5497
vn 0.5984 0.5828 0.5497
vn 0.5201 0.5828 -0.6244
vn 0.0632 -0.3178 0.9461
vn 0.2609 0.3591 0.8961
vn 0.9889 -0.1483 -0.0000
vn 0.5878 0.8090 -0.0000
vn -0.9582 0.2860 -0.0000
vn 0.2609 0.3591 -0.8961
vn -0.4467 0.8947 -0.0000
vn -0.1868 -0.2571 -0.9482
vn 0.5681 -0.8230 -0.0000
vn -0.2892 0.6852 0.6684
vn -0.2892 0.6852 -0.6684
vn 0.7411 -0.0633 0.6684
vn 0.7411 -0.0633 -0.6684
vn 0.1015 0.8829 0.4585
vn 0.1015 0.8829 -0.4585
vn 0.8083 0.3694 -0.4585
vn 0.8083 0.3694 0.4585
vn -0.7718 0.6359 -0.0000
vn 0.0340 0.0469 -0.9983
vn 0.8432 -0.5375 -0.0000
vn 0.0340 0.0469 0.9983
vn 0.0063 1.0000 -0.0000
vn 0.4696 0.6464 -0.6013
vn 0.9491 0.3150 -0.0000
vn 0.4696 0.6464 0.6013
vn -0.1109 0.8009 0.5884
vn -0.1109 0.8009 -0.5884
vn 0.7960 0.1420 0.5884
vn 0.7960 0.1420 -0.5884
vn -0.1868 -0.2571 0.9482
vn 0.3733 0.1726 0.9115
vn 0.7111 -0.7000 0.0659
vn 0.9500 0.3098 0.0392
vn -0.6054 0.7933 -0.0638
vn 0.4699 0.1024 -0.8768
vn 0.1653 0.9858 -0.0298
vn -0.2508 -0.1356 -0.9585
vn -0.0252 -0.9990 0.0378
vn 0.1333 0.7502 0.6477
vn 0.2053 0.6978 -0.6862
vn 0.5250 -0.4597 0.7163
vn 0.5970 -0.5120 -0.6176
vn 0.5762 0.6727 0.4643
vn 0.6256 0.6367 -0.4507
vn 0.8943 -0.1931 -0.4036
vn 0.8449 -0.1572 0.5113
vn -0.2492 0.9671 -0.0514
vn 0.1088 -0.0211 -0.9938
vn 0.3647 -0.9294 0.0562
vn 0.0012 0.0570 0.9984
vn 0.5929 0.8053 0.0004
vn 0.7915 0.2240 -0.5687
vn 0.9513 -0.3018 0.0632
vn 0.7266 0.2711 0.6313
vn 0.3496 0.7361 0.5797
vn 0.4130 0.6900 -0.5945
vn 0.6943 -0.3289 0.6401
vn 0.7578 -0.3750 -0.5340
vn -0.3530 -0.0613 0.9336
vn 0.3537 -0.0436 0.9344
vn 0.1590 -0.9808 0.1131
vn 0.9468 -0.3050 0.1024
vn -0.0190 0.9944 -0.1040
vn 0.4868 -0.2271 -0.8435
vn 0.7145 0.6994 -0.0187
vn -0.2305 -0.0001 -0.9731
vn -0.6095 -0.7919 0.0361
vn 0.5136 0.5541 0.6551
vn 0.6129 0.4172 -0.6710
vn 0.1150 -0.6517 0.7497
vn 0.2143 -0.7886 -0.5764
vn 0.8355 0.2244 0.5016
vn 0.9036 0.1306 -0.4081
vn 0.6301 -0.6965 -0.3432
vn 0.5620 -0.6027 0.5665
vn 0.3700 0.9265 -0.0679
vn 0.1290 -0.1198 -0.9844
vn -0.2549 -0.9636 0.0803
vn -0.0193 0.0845 0.9962
vn 0.9519 0.3038 0.0399
vn 0.8012 -0.3052 -0.5147
vn 0.5871 -0.7996 0.1265
vn 0.7119 -0.1821 0.6783
vn 0.6836 0.4132 0.6017
vn 0.7710 0.2927 -0.5656
vn 0.3327 -0.6482 0.6849
vn 0.4201 -0.7687 -0.4824
vn -0.3713 0.1940 0.9080
vn 0.2095 -0.2061 0.9558
vn -0.4542 -0.8823 0.1234
vn 0.5795 -0.7980 0.1652
vn 0.5748 0.8115 -0.1051
vn 0.3049 -0.5022 -0.8092
vn 0.9889 0.1461 0.0290
vn -0.1337 0.0970 -0.9863
vn -0.9595 -0.2818 -0.0046
vn 0.7050 0.1727 0.6879
vn 0.7762 -0.0482 -0.6287
vn -0.3307 -0.5653 0.7557
vn -0.2595 -0.7862 -0.5609
vn 0.7793 -0.2888 0.5562
vn 0.8281 -0.4403 -0.3470
vn 0.1177 -0.9465 -0.3004
vn 0.0689 -0.7950 0.6027
vn 0.8469 0.5299 -0.0431
vn 0.0867 -0.2111 -0.9736
vn -0.7765 -0.6270 0.0632
vn -0.0196 0.1187 0.9927
vn 0.9448 -0.3109 0.1032
vn 0.4950 -0.7370 -0.4602
vn -0.0029 -0.9862 0.1653
vn 0.4310 -0.5383 0.7242
vn 0.7622 -0.0431 0.6459
vn 0.8249 -0.2375 -0.5130
vn -0.1494 -0.6927 0.7056
vn -0.0867 -0.8871 -0.4533
vn -0.2347 0.4103 0.8813
vn -0.0036 -0.2522 0.9677
vn -0.8919 -0.4426 0.0929
vn -0.0102 -0.9790 0.2034
vn 0.9466 0.3153 -0.0665
vn -0.0055 -0.6168 -0.7871
vn 0.8825 -0.4606 0.0948
vn 0.0022 0.1182 -0.9930
vn -0.9399 0.3346 -0.0685
vn 0.6335 -0.2468 0.7333
vn 0.6321 -0.5188 -0.5756
vn -0.6399 -0.2339 0.7320
vn -0.6413 -0.5058 -0.5769
vn 0.4294 -0.6689 0.6068
vn 0.4284 -0.8554 -0.2910
vn -0.4451 -0.8465 -0.2919
vn -0.4442 -0.6600 0.6059
vn 0.9975 -0.0697 0.0134
vn -0.0016 -0.2598 -0.9657
vn -0.9987 -0.0493 0.0113
vn 0.0005 0.1464 0.9892
vn 0.5744 -0.8016 0.1660
vn -0.0088 -0.9046 -0.4262
vn -0.5909 -0.7897 0.1647
vn -0.0075 -0.6599 0.7513
vn 0.5551 -0.4566 0.6952
vn 0.5539 -0.6960 -0.4569
vn -0.5658 -0.4452 0.6941
vn -0.5670 -0.6846 -0.4581
vn 0.0042 0.5040 0.8637
vn -0.2033 -0.1640 0.9653
vn -0.9851 0.1687 0.0333
vn -0.5946 -0.7781 0.2023
vn 0.9531 -0.3027 -0.0033
vn -0.3245 -0.5266 -0.7857
vn 0.4365 -0.8865 0.1534
vn 0.1248 0.0555 -0.9906
vn -0.5584 0.8192 -0.1310
vn 0.3268 -0.5425 0.7739
vn 0.2363 -0.8130 -0.5322
vn -0.6935 0.2148 0.6877
vn -0.7839 -0.0557 -0.6184
vn -0.0793 -0.7692 0.6341
vn -0.1413 -0.9547 -0.2618
vn -0.8412 -0.4352 -0.3209
vn -0.7791 -0.2497 0.5750
vn 0.7635 -0.6408 0.0798
vn -0.1020 -0.2470 -0.9636
vn -0.8358 0.5463 -0.0552
vn 0.0331 0.1569 0.9871
vn -0.0165 -0.9789 0.2038
vn -0.5158 -0.7434 -0.4258
vn -0.9501 -0.2859 0.1250
vn -0.4344 -0.5001 0.7491
vn 0.1423 -0.6677 0.7307
vn 0.0627 -0.9058 -0.4190
vn -0.7558 -0.0011 0.6548
vn -0.8354 -0.2392 -0.4948
vn 0.2531 0.4391 0.8620
vn -0.3125 0.0243 0.9496
vn -0.6978 0.7155 -0.0324
vn -0.9483 -0.2728 0.1622
vn 0.5916 -0.8040 0.0602
vn -0.5292 -0.2665 -0.8056
vn -0.1770 -0.9672 0.1821
vn 0.1868 -0.0671 -0.9801
vn 0.0379 0.9851 -0.1679
vn -0.0968 -0.6002 0.7939
vn -0.2584 -0.8171 -0.5153
vn -0.4706 0.6074 0.6400
vn -0.6322 0.3905 -0.6692
vn -0.5503 -0.5510 0.6274
vn -0.6611 -0.6997 -0.2707
vn -0.9175 0.1286 -0.3763
vn -0.8067 0.2774 0.5218
vn 0.2353 -0.9631 0.1305
vn -0.1756 -0.1778 -0.9683
vn -0.3506 0.9299 -0.1108
vn 0.0658 0.1462 0.9871
vn -0.5997 -0.7743 0.2023
vn -0.8304 -0.3156 -0.4593
vn -0.9417 0.3308 0.0614
vn -0.6850 -0.1204 0.7185
vn -0.3170 -0.5951 0.7385
vn -0.4593 -0.7860 -0.4139
vn -0.6461 0.4680 0.6030
vn -0.7883 0.2770 -0.5494
vn 0.4160 0.2405 0.8770
vn -0.2892 0.2401 0.9267
vn -0.1410 0.9869 -0.0788
vn -0.9346 0.3418 0.0987
vn 0.0018 -0.9950 0.0995
vn -0.5404 0.0632 -0.8390
vn -0.7212 -0.6716 0.1699
vn 0.1641 -0.2022 -0.9655
vn 0.6186 0.7682 -0.1650
vn -0.4737 -0.3977 0.7857
vn -0.6611 -0.5297 -0.5313
vn -0.0574 0.7925 0.6072
vn -0.2447 0.6605 -0.7098
vn -0.8019 -0.0984 0.5893
vn -0.9304 -0.1890 -0.3141
vn -0.6448 0.6275 -0.4365
vn -0.5162 0.7180 0.4669
vn -0.3832 -0.9121 0.1459
vn -0.1941 -0.0788 -0.9778
vn 0.2696 0.9536 -0.1339
vn 0.0858 0.1183 0.9893
vn -0.9501 -0.2668 0.1619
vn -0.8310 0.2137 -0.5136
vn -0.5690 0.8223 -0.0014
vn -0.6624 0.3324 0.6713
vn -0.6455 -0.2666 0.7158
vn -0.8104 -0.3827 -0.4436
vn -0.2789 0.7811 0.5586
vn -0.4439 0.6649 -0.6007
vn 0.4299 -0.0150 0.9027
vn -0.1422 0.4002 0.9053
vn 0.4705 0.8780 -0.0880
vn -0.5588 0.8285 0.0362
vn -0.5888 -0.8021 0.0993
vn -0.3538 0.3352 -0.8732
vn -0.9861 -0.1137 0.1215
vn 0.0657 -0.2976 -0.9524
vn 0.9598 0.2522 -0.1234
vn -0.6586 -0.0132 0.7524
vn -0.8164 -0.0616 -0.5742
vn 0.3868 0.6985 0.6021
vn 0.2289 0.6501 -0.7246
vn -0.7369 0.4137 0.5346
vn -0.8452 0.3805 -0.3754
vn -0.1281 0.8687 -0.4785
vn -0.0199 0.9019 0.4315
vn -0.8533 -0.5075 0.1201
vn -0.1502 0.0118 -0.9886
vn 0.7853 0.6082 -0.1156
vn 0.0855 0.0842 0.9928
vn -0.9324 0.3477 0.0982
vn -0.5175 0.6402 -0.5678
vn 0.0241 0.9989 -0.0393
vn -0.3755 0.6837 0.6257
vn -0.7163 0.1909 0.6712
vn -0.8552 0.1483 -0.4966
vn 0.2038 0.8174 0.5388
vn 0.0649 0.7747 -0.6289
vn 0.2896 -0.2289 0.9294
vn -0.0599 -0.4364 -0.8978
vn -0.8886 -0.4549 0.0593
vn -0.0000 -1.0000 -0.0000
vn 0.9487 0.3096 -0.0633
vn 0.0599 -0.4364 0.8978
vn 0.8886 -0.4549 -0.0593
vn 0.0637 0.2945 0.9535
vn -0.9487 0.3096 0.0633
vn 0.5843 -0.3951 -0.7088
vn 0.6734 -0.3951 0.6249
vn -0.6734 -0.3951 -0.6249
vn -0.5843 -0.3951 0.7088
vn 0.4028 -0.7764 -0.4848
vn 0.4637 -0.7764 0.4269
vn -0.4028 -0.7764 0.4848
vn -0.4637 -0.7764 -0.4269
vn 0.9916 -0.1115 -0.0662
vn 0.0662 -0.1111 0.9916
vn -0.9916 -0.1115 0.0662
vn -0.0662 -0.1111 -0.9916
vn 0.5941 -0.8034 -0.0397
vn 0.0410 -0.7879 0.6144
vn -0.5941 -0.8034 0.0397
vn -0.0410 -0.7879 -0.6144
vn 0.5127 -0.5934 -0.6205
vn 0.5907 -0.5934 0.5468
vn -0.5907 -0.5934 -0.5468
vn -0.5127 -0.5934 0.6205
vn -0.0637 0.2945 -0.9535
vn -0.2565 -0.3530 -0.8998
vn -0.9878 0.1554 -0.0000
vn -0.5878 -0.8090 -0.0000
vn 0.9513 -0.3084 -0.0000
vn -0.2565 -0.3530 0.8998
vn 0.4531 -0.8915 -0.0000
vn 0.1731 0.2383 0.9557
vn -0.5873 0.8094 -0.0000
vn 0.2776 -0.6901 -0.6683
vn 0.2776 -0.6901 0.6683
vn -0.7421 0.0508 -0.6683
vn -0.7421 0.0508 0.6683
vn -0.1050 -0.8833 -0.4569
vn -0.1050 -0.8833 0.4569
vn -0.8076 -0.3729 0.4569
vn -0.8076 -0.3729 -0.4569
vn 0.7384 -0.6743 -0.0000
vn -0.0653 -0.0899 0.9938
vn -0.8695 0.4939 -0.0000
vn -0.0653 -0.0899 -0.9938
vn 0.0094 -1.0000 -0.0000
vn -0.4631 -0.6374 0.6158
vn -0.9539 -0.3000 -0.0000
vn -0.4631 -0.6374 -0.6158
vn 0.0986 -0.8051 -0.5849
vn 0.0986 -0.8051 0.5849
vn -0.7961 -0.1550 -0.5849
vn -0.7961 -0.1550 0.5849
vn 0.1731 0.2383 -0.9557
vn -0.3661 -0.1704 -0.9149
vn -0.7060 0.7051 -0.0658
vn -0.9500 -0.3098 -0.0392
vn 0.5866 -0.8074 0.0634
vn -0.4630 -0.0999 0.8807
vn -0.1582 -0.9869 0.0302
vn 0.2283 0.1287 0.9651
vn 0.0017 0.9992 -0.0391
vn -0.1455 -0.7473 -0.6484
vn -0.2176 -0.6950 0.6854
vn -0.5332 0.4501 -0.7163
vn -0.6052 0.5025 0.6174
vn -0.5794 -0.6709 -0.4628
vn -0.6286 -0.6351 0.4488
vn -0.8957 0.1899 0.4020
vn -0.8465 0.1541 -0.5096
vn 0.1997 -0.9786 0.0492
vn -0.1591 0.0045 0.9872
vn -0.4116 0.9095 -0.0579
vn -0.0520 -0.0733 -0.9960
vn -0.5802 -0.8145 0.0006
vn -0.7817 -0.2200 0.5836
vn -0.9464 0.3167 -0.0635
vn -0.7153 -0.2682 -0.6453
vn -0.3621 -0.7320 -0.5771
vn -0.4252 -0.6862 0.5902
vn -0.7022 0.3186 -0.6367
vn -0.7653 0.3644 0.5306
vn 0.3313 0.0538 -0.9420
vn -0.3463 0.0410 -0.9372
vn -0.1519 0.9819 -0.1127
vn -0.9468 0.3050 -0.1024
vn -0.0045 -0.9947 0.1023
vn -0.4800 0.2252 0.8479
vn -0.7095 -0.7045 0.0196
vn 0.2079 0.0080 0.9781
vn 0.5908 0.8059 -0.0389
vn -0.5218 -0.5446 -0.6566
vn -0.6210 -0.4078 0.6693
vn -0.1272 0.6488 -0.7502
vn -0.2265 0.7857 0.5757
vn -0.8371 -0.2211 -0.5004
vn -0.9049 -0.1276 0.4060
vn -0.6331 0.6947 0.3415
vn -0.5652 0.6012 -0.5649
vn -0.4167 -0.9069 0.0624
vn -0.1790 0.1356 0.9745
vn 0.2055 0.9749 -0.0852
vn -0.0314 -0.0678 -0.9972
vn -0.9471 -0.3187 -0.0380
vn -0.7917 0.3033 0.5302
vn -0.5744 0.8088 -0.1265
vn -0.7003 0.1773 -0.6915
vn -0.6915 -0.4024 -0.5999
vn -0.7784 -0.2827 0.5606
vn -0.3453 0.6447 -0.6820
vn -0.4322 0.7644 0.4785
vn 0.3498 -0.1876 -0.9178
vn -0.2050 0.1996 -0.9582
vn 0.4606 0.8791 -0.1226
vn -0.5795 0.7980 -0.1652
vn -0.5938 -0.7981 0.1018
vn -0.3008 0.4969 0.8140
vn -0.9878 -0.1531 -0.0277
vn 0.1198 -0.0771 0.9898
vn 0.9527 0.3039 0.0005
vn -0.7059 -0.1603 -0.6899
vn -0.7771 0.0605 0.6265
vn 0.3191 0.5701 -0.7570
vn 0.2480 0.7910 0.5594
vn -0.7787 0.2924 -0.5551
vn -0.8274 0.4434 0.3448
vn -0.1211 0.9467 0.2985
vn -0.0725 0.7957 -0.6013
vn -0.8728 -0.4869 0.0345
vn -0.1173 0.2529 0.9604
vn 0.7435 0.6649 -0.0713
vn -0.0115 -0.0755 -0.9971
vn -0.9498 0.2962 -0.1010
vn -0.4894 0.7305 0.4763
vn 0.0186 0.9862 -0.1644
vn -0.4238 0.5270 -0.7366
vn -0.7624 0.0565 -0.6447
vn -0.8247 0.2497 0.5075
vn 0.1369 0.6973 -0.7035
vn 0.0746 0.8906 0.4486
vn 0.2216 -0.3929 -0.8925
vn 0.0035 0.2442 -0.9697
vn 0.8951 0.4363 -0.0916
vn 0.0102 0.9790 -0.2034
vn -0.9540 -0.2935 0.0620
vn 0.0054 0.6103 0.7922
vn -0.8859 0.4544 -0.0935
vn -0.0020 -0.0939 0.9956
vn 0.9477 -0.3128 0.0640
vn -0.6269 0.2573 -0.7354
vn -0.6255 0.5292 0.5733
vn 0.6335 0.2445 -0.7341
vn 0.6349 0.5164 0.5746
vn -0.4268 0.6716 -0.6057
vn -0.4258 0.8574 0.2889
vn 0.4426 0.8486 0.2898
vn 0.4416 0.6627 -0.6048
vn -0.9926 0.1193 -0.0237
vn 0.0022 0.3110 0.9504
vn 0.9948 0.0990 -0.0216
vn 0.0001 -0.0934 -0.9956
vn -0.5872 0.7927 -0.1641
vn 0.0087 0.8967 0.4426
vn 0.6035 0.7805 -0.1628
vn 0.0074 0.6461 -0.7632
vn -0.5475 0.4676 -0.6940
vn -0.5463 0.7056 0.4514
vn 0.5583 0.4563 -0.6929
vn 0.5596 0.6943 0.4526
vn -0.0040 -0.4827 -0.8758
vn 0.1986 0.1575 -0.9673
vn 0.9839 -0.1756 -0.0318
vn 0.5947 0.7781 -0.2023
vn -0.9459 0.3245 -0.0017
vn 0.3204 0.5216 0.7908
vn -0.4430 0.8835 -0.1523
vn -0.1105 -0.0358 0.9932
vn 0.5776 -0.8064 0.1270
vn -0.3152 0.5470 -0.7755
vn -0.2247 0.8174 0.5304
vn 0.6946 -0.2025 -0.6903
vn 0.7851 0.0679 0.6157
vn 0.0829 0.7699 -0.6328
vn 0.1447 0.9547 0.2599
vn 0.8404 0.4383 0.3187
vn 0.7786 0.2535 -0.5740
vn -0.7298 0.6777 -0.0898
vn 0.1333 0.2875 0.9485
vn 0.8624 -0.5042 0.0447
vn -0.0012 -0.1146 -0.9934
vn 0.0008 0.9792 -0.2028
vn 0.5102 0.7377 0.4422
vn 0.9547 0.2711 -0.1223
vn 0.4269 0.4885 -0.7610
vn -0.1297 0.6722 -0.7289
vn -0.0506 0.9089 0.4140
vn 0.7563 0.0146 -0.6541
vn 0.8354 0.2513 0.4888
vn -0.2398 -0.4225 -0.8741
vn 0.3050 -0.0269 -0.9520
vn 0.6927 -0.7204 0.0338
vn 0.9483 0.2728 -0.1622
vn -0.5727 0.8172 -0.0647
vn 0.5226 0.2650 0.8104
vn 0.1700 0.9686 -0.1815
vn -0.1638 0.0747 0.9837
vn -0.0145 -0.9862 0.1652
vn 0.1089 0.5970 -0.7948
vn 0.2705 0.8139 0.5142
vn 0.4789 -0.5983 -0.6424
vn 0.6405 -0.3814 0.6666
vn 0.5535 0.5495 -0.6259
vn 0.6640 0.6977 0.2690
vn 0.9189 -0.1258 0.3739
vn 0.8084 -0.2741 -0.5209
vn -0.1859 0.9728 -0.1382
vn 0.2255 0.1916 0.9552
vn 0.3974 -0.9119 0.1020
vn -0.0148 -0.1309 -0.9913
vn 0.5871 0.7838 -0.2023
vn 0.8216 0.3149 0.4752
vn 0.9366 -0.3454 -0.0584
vn 0.6727 0.1150 -0.7309
vn 0.3297 0.5913 -0.7360
vn 0.4711 0.7811 0.4097
vn 0.6543 -0.4574 -0.6023
vn 0.7957 -0.2675 0.5434
vn -0.3948 -0.2354 -0.8881
vn 0.2817 -0.2380 -0.9295
vn 0.1339 -0.9878 0.0799
vn 0.9346 -0.3418 -0.0987
vn 0.0215 0.9945 -0.1027
vn 0.5339 -0.0603 0.8434
vn 0.7163 0.6768 -0.1697
vn -0.1413 0.1950 0.9706
vn -0.6003 -0.7828 0.1638
vn 0.4817 0.3880 -0.7858
vn 0.6690 0.5199 0.5311
vn 0.0695 -0.7900 -0.6091
vn 0.2569 -0.6581 0.7078
vn 0.8035 0.0954 -0.5876
vn 0.9316 0.1856 0.3126
vn 0.6476 -0.6261 0.4343
vn 0.5196 -0.7163 -0.4659
vn 0.4291 0.8906 -0.1503
vn 0.2431 0.0601 0.9681
vn -0.2207 -0.9669 0.1283
vn -0.0354 -0.1361 -0.9901
vn 0.9456 0.2818 -0.1628
vn 0.8227 -0.2085 0.5289
vn 0.5562 -0.8310 0.0041
vn 0.6500 -0.3301 -0.6845
vn 0.6534 0.2562 -0.7124
vn 0.8173 0.3717 0.4402
vn 0.2918 -0.7773 -0.5574
vn 0.4558 -0.6618 0.5952
vn -0.4092 0.0063 -0.9124
vn 0.1376 -0.3941 -0.9087
vn -0.4768 -0.8745 0.0887
vn 0.5588 -0.8285 -0.0362
vn 0.6074 0.7879 -0.1010
vn 0.3501 -0.3289 0.8771
vn 0.9852 0.1208 -0.1216
vn -0.0517 0.2786 0.9590
vn -0.9535 -0.2749 0.1235
vn 0.6592 0.0006 -0.7520
vn 0.8170 0.0491 0.5745
vn -0.3754 -0.7038 -0.6031
vn -0.2176 -0.6553 0.7233
vn 0.7363 -0.4171 -0.5328
vn 0.8442 -0.3840 0.3740
vn 0.1314 -0.8693 0.4765
vn 0.0235 -0.9024 -0.4302
vn 0.8780 0.4630 -0.1214
vn 0.1794 -0.0560 0.9822
vn -0.7534 -0.6477 0.1133
vn -0.0552 -0.1281 -0.9902
vn 0.9377 -0.3329 -0.0994
vn 0.5130 -0.6304 0.5826
vn -0.0397 -0.9984 0.0412
vn 0.3676 -0.6751 -0.6397
vn 0.7164 -0.2038 -0.6673
vn 0.8545 -0.1614 0.4937
vn -0.1913 -0.8218 -0.5367
vn -0.0532 -0.7794 0.6243
vn -0.2774 0.2094 -0.9377
vt 0.625000 0.952375
vt 0.625000 0.797625
vt 0.625000 0.809567
vt 0.625000 0.940433
vt 0.625000 0.702375
vt 0.625000 0.547625
vt 0.625000 0.559567
vt 0.625000 0.690433
vt 0.700028 0.575028
vt 0.799972 0.575028
vt 0.799972 0.674972
vt 0.700028 0.674972
vt 0.375000 0.000000
vt 0.593778 0.000000
vt 0.593778 0.218778
vt 0.625000 0.452375
vt 0.625000 0.297625
vt 0.625000 0.309567
vt 0.625000 0.440433
vt 0.625000 0.202375
vt 0.625000 0.047625
vt 0.625000 0.059567
vt 0.625000 0.190433
vt 0.375000 0.250000
vt 0.593778 0.250000
vt 0.593778 0.468778
vt 0.375000 0.500000
vt 0.593778 0.500000
vt 0.593778 0.718778
vt 0.625000 0.015611
vt 0.625000 0.000000
vt 0.625000 0.250000
vt 0.625000 0.234389
vt 0.625000 0.750000
vt 0.625000 0.765611
vt 0.625000 0.500000
vt 0.625000 0.484389
vt 0.625000 0.075028
vt 0.625000 0.174972
vt 0.625000 0.424972
vt 0.625000 0.825028
vt 0.593778 0.968778
vt 0.593778 0.750000
vt 0.625000 0.325028
vt 0.625000 0.924972
vt 0.375000 0.750000
s 0
usemtl マテリアル
f 4/1/1 9/2/1 25/3/1 15/4/1
f 8/5/2 12/6/2 22/7/2 23/8/2
f 21/9/3 18/10/3 16/11/3 24/12/3
f 1/13/4 3/14/4 7/15/4
f 11/16/5 6/17/5 19/18/5 20/19/5
f 5/20/6 2/21/6 14/22/6 17/23/6
f 1/24/7 7/25/7 13/26/7
f 1/27/8 13/28/8 10/29/8
f 2/21/9 3/30/9 4/31/9
f 5/20/10 6/32/10 7/33/10
f 8/34/11 9/2/11 10/35/11
f 11/16/12 12/36/12 13/37/12
f 14/22/13 15/31/13 16/38/13
f 17/23/14 18/39/14 19/32/14
f 20/19/15 21/40/15 22/36/15
f 23/34/16 24/41/16 25/3/16
f 2/21/17 5/20/17 7/15/17 3/14/17
f 6/17/18 11/16/18 13/26/18 7/25/18
f 12/6/19 8/5/19 10/29/19 13/28/19
f 9/2/20 4/1/20 3/42/20 10/43/20
f 16/38/21 18/39/21 17/23/21 14/22/21
f 18/44/22 21/40/22 20/19/22 19/18/22
f 21/9/23 24/12/23 23/8/23 22/7/23
f 24/41/24 16/45/24 15/4/24 25/3/24
f 4/31/25 15/31/25 14/22/25 2/21/25
f 19/18/26 6/17/26 5/20/26 17/23/26
f 8/5/27 23/8/27 25/3/27 9/2/27
f 22/7/28 12/6/28 11/16/28 20/19/28
f 1/46/29 10/43/29 3/42/29
f 29/1/30 34/2/30 50/3/30 40/4/30
f 33/5/31 37/6/31 47/7/31 48/8/31
f 46/9/32 43/10/32 41/11/32 49/12/32
f 26/13/33 28/14/33 32/15/33
f 36/16/34 31/17/34 44/18/34 45/19/34
f 30/20/35 27/21/35 39/22/35 42/23/35
f 26/24/36 32/25/36 38/26/36
f 26/27/37 38/28/37 35/29/37
f 27/21/38 28/30/38 29/31/38
f 30/20/39 31/32/39 32/33/39
f 33/34/40 34/2/40 35/35/40
f 36/16/41 37/36/41 38/37/41
f 39/22/42 40/31/42 41/38/42
f 42/23/43 43/39/43 44/32/43
f 45/19/44 46/40/44 47/36/44
f 48/34/45 49/41/45 50/3/45
f 27/21/46 30/20/46 32/15/46 28/14/46
f 31/17/47 36/16/47 38/26/47 32/25/47
f 37/6/48 33/5/48 35/29/48 38/28/48
f 34/2/49 29/1/49 28/42/49 35/43/49
f 41/38/50 43/39/50 42/23/50 39/22/50
f 43/44/51 46/40/51 45/19/51 44/18/51
f 46/9/52 49/12/52 48/8/52 47/7/52
f 49/41/53 41/45/53 40/4/53 50/3/53
f 29/31/54 40/31/54 39/22/54 27/21/54
f 44/18/55 31/17/55 30/20/55 42/23/55
f 33/5/56 48/8/56 50/3/56 34/2/56
f 47/7/57 37/6/57 36/16/57 45/19/57
f 26/46/58 35/43/58 28/42/58
f 54/1/59 59/2/59 75/3/59 65/4/59
f 58/5/60 62/6/60 72/7/60 73/8/60
f 71/9/61 68/10/61 66/11/61 74/12/61
f 51/13/62 53/14/62 57/15/62
f 61/16/63 56/17/63 69/18/63 70/19/63
f 55/20/64 52/21/64 64/22/64 67/23/64
f 51/24/65 57/25/65 63/26/65
f 51/27/66 63/28/66 60/29/66
f 52/21/67 53/30/67 54/31/67
f 55/20/68 56/32/68 57/33/68
f 58/34/69 59/2/69 60/35/69
f 61/16/70 62/36/70 63/37/70
f 64/22/71 65/31/71 66/38/71
f 67/23/72 68/39/72 69/32/72
f 70/19/73 71/40/73 72/36/73
f 73/34/74 74/41/74 75/3/74
f 52/21/75 55/20/75 57/15/75 53/14/75
f 56/17/76 61/16/76 63/26/76 57/25/76
f 62/6/77 58/5/77 60/29/77 63/28/77
f 59/2/78 54/1/78 53/42/78 60/43/78
f 66/38/79 68/39/79 67/23/79 64/22/79
f 68/44/80 71/40/80 70/19/80 69/18/80
f 71/9/81 74/12/81 73/8/81 72/7/81
f 74/41/82 66/45/82 65/4/82 75/3/82
f 54/31/83 65/31/83 64/22/83 52/21/83
f 69/18/84 56/17/84 55/20/84 67/23/84
f 58/5/85 73/8/85 75/3/85 59/2/85
f 72/7/86 62/6/86 61/16/86 70/19/86
f 51/46/87 60/43/87 53/42/87
f 79/1/88 84/2/88 100/3/88 90/4/88
f 83/5/89 87/6/89 97/7/89 98/8/89
f 96/9/90 93/10/90 91/11/90 99/12/90
f 76/13/91 78/14/91 82/15/91
f 86/16/92 81/17/92 94/18/92 95/19/92
f 80/20/93 77/21/93 89/22/93 92/23/93
f 76/24/94 82/25/94 88/26/94
f 76/27/95 88/28/95 85/29/95
f 77/21/96 78/30/96 79/31/96
f 80/20/97 81/32/97 82/33/97
f 83/34/98 84/2/98 85/35/98
f 86/16/99 87/36/99 88/37/99
f 89/22/100 90/31/100 91/38/100
f 92/23/101 93/39/101 94/32/101
f 95/19/102 96/40/102 97/36/102
f 98/34/103 99/41/103 100/3/103
f 77/21/104 80/20/104 82/15/104 78/14/104
f 81/17/105 86/16/105 88/26/105 82/25/105
f 87/6/106 83/5/106 85/29/106 88/28/106
f 84/2/107 79/1/107 78/42/107 85/43/107
f 91/38/108 93/39/108 92/23/108 89/22/108
f 93/44/109 96/40/109 95/19/109 94/18/109
f 96/9/110 99/12/110 98/8/110 97/7/110
f 99/41/111 91/45/111 90/4/111 100/3/111
f 79/31/112 90/31/112 89/22/112 77/21/112
f 94/18/113 81/17/113 80/20/113 92/23/113
f 83/5/114 98/8/114 100/3/114 84/2/114
f 97/7/115 87/6/115 86/16/115 95/19/115
f 76/46/116 85/43/116 78/42/116
f 104/1/117 109/2/117 125/3/117 115/4/117
f 108/5/118 112/6/118 122/7/118 123/8/118
f 121/9/119 118/10/119 116/11/119 124/12/119
f 101/13/120 103/14/120 107/15/120
f 111/16/121 106/17/121 119/18/121 120/19/121
f 105/20/122 102/21/122 114/22/122 117/23/122
f 101/24/123 107/25/123 113/26/123
f 101/27/124 113/28/124 110/29/124
f 102/21/125 103/30/125 104/31/125
f 105/20/126 106/32/126 107/33/126
f 108/34/127 109/2/127 110/35/127
f 111/16/128 112/36/128 113/37/128
f 114/22/129 115/31/129 116/38/129
f 117/23/130 118/39/130 119/32/130
f 120/19/131 121/40/131 122/36/131
f 123/34/132 124/41/132 125/3/132
f 102/21/133 105/20/133 107/15/133 103/14/133
f 106/17/134 111/16/134 113/26/134 107/25/134
f 112/6/135 108/5/135 110/29/135 113/28/135
f 109/2/136 104/1/136 103/42/136 110/43/136
f 116/38/137 118/39/137 117/23/137 114/22/137
f 118/44/138 121/40/138 120/19/138 119/18/138
f 121/9/139 124/12/139 123/8/139 122/7/139
f 124/41/140 116/45/140 115/4/140 125/3/140
f 104/31/141 115/31/141 114/22/141 102/21/141
f 119/18/142 106/17/142 105/20/142 117/23/142
f 108/5/143 123/8/143 125/3/143 109/2/143
f 122/7/144 112/6/144 111/16/144 120/19/144
f 101/46/145 110/43/145 103/42/145
f 129/1/146 134/2/146 150/3/146 140/4/146
f 133/5/147 137/6/147 147/7/147 148/8/147
f 146/9/148 143/10/148 141/11/148 149/12/148
f 126/13/149 128/14/149 132/15/149
f 136/16/150 131/17/150 144/18/150 145/19/150
f 130/20/151 127/21/151 139/22/151 142/23/151
f 126/24/152 132/25/152 138/26/152
f 126/27/153 138/28/153 135/29/153
f 127/21/154 128/30/154 129/31/154
f 130/20/155 131/32/155 132/33/155
f 133/34/156 134/2/156 135/35/156
f 136/16/157 137/36/157 138/37/157
f 139/22/158 140/31/158 141/38/158
f 142/23/159 143/39/159 144/32/159
f 145/19/160 146/40/160 147/36/160
f 148/34/161 149/41/161 150/3/161
f 127/21/162 130/20/162 132/15/162 128/14/162
f 131/17/163 136/16/163 138/26/163 132/25/163
f 137/6/164 133/5/164 135/29/164 138/28/164
f 134/2/165 129/1/165 128/42/165 135/43/165
f 141/38/166 143/39/166 142/23/166 139/22/166
f 143/44/167 146/40/167 145/19/167 144/18/167
f 146/9/168 149/12/168 148/8/168 147/7/168
f 149/41/169 141/45/169 140/4/169 150/3/169
f 129/31/170 140/31/170 139/22/170 127/21/170
f 144/18/171 131/17/171 130/20/171 142/23/171
f 133/5/172 148/8/172 150/3/172 134/2/172
f 147/7/173 137/6/173 136/16/173 145/19/173
f 126/46/174 135/43/174 128/42/174
f 154/1/175 159/2/175 175/3/175 165/4/175
f 158/5/176 162/6/176 172/7/176 173/8/176
f 171/9/177 168/10/177 166/11/177 174/12/177
f 151/13/178 153/14/178 157/15/178
f 161/16/179 156/17/179 169/18/179 170/19/179
f 155/20/180 152/21/180 164/22/180 167/23/180
f 151/24/181 157/25/181 163/26/181
f 151/27/182 163/28/182 160/29/182
f 152/21/183 153/30/183 154/31/183
f 155/20/184 156/32/184 157/33/184
f 158/34/185 159/2/185 160/35/185
f 161/16/186 162/36/186 163/37/186
f 164/22/187 165/31/187 166/38/187
f 167/23/188 168/39/188 169/32/188
f 170/19/189 171/40/189 172/36/189
f 173/34/190 174/41/190 175/3/190
f 152/21/191 155/20/191 157/15/191 153/14/191
f 156/17/192 161/16/192 163/26/192 157/25/192
f 162/6/193 158/5/193 160/29/193 163/28/193
f 159/2/194 154/1/194 153/42/194 160/43/194
f 166/38/195 168/39/195 167/23/195 164/22/195
f 168/44/196 171/40/196 170/19/196 169/18/196
f 171/9/197 174/12/197 173/8/197 172/7/197
f 174/41/198 166/45/198 165/4/198 175/3/198
f 154/31/199 165/31/199 164/22/199 152/21/199
f 169/18/200 156/17/200 155/20/200 167/23/200
f 158/5/201 173/8/201 175/3/201 159/2/201
f 172/7/202 162/6/202 161/16/202 170/19/202
f 151/46/203 160/43/203 153/42/203
f 179/1/204 184/2/204 200/3/204 190/4/204
f 183/5/205 187/6/205 197/7/205 198/8/205
f 196/9/206 193/10/206 191/11/206 199/12/206
f 176/13/207 178/14/207 182/15/207
f 186/16/208 181/17/208 194/18/208 195/19/208
f 180/20/209 177/21/209 189/22/209 192/23/209
f 176/24/210 182/25/210 188/26/210
f 176/27/211 188/28/211 185/29/211
f 177/21/212 178/30/212 179/31/212
f 180/20/213 181/32/213 182/33/213
f 183/34/214 184/2/214 185/35/214
f 186/16/215 187/36/215 188/37/215
f 189/22/216 190/31/216 191/38/216
f 192/23/217 193/39/217 194/32/217
f 195/19/218 196/40/218 197/36/218
f 198/34/219 199/41/219 200/3/219
f 177/21/220 180/20/220 182/15/220 178/14/220
f 181/17/221 186/16/221 188/26/221 182/25/221
f 187/6/222 183/5/222 185/29/222 188/28/222
f 184/2/223 179/1/223 178/42/223 185/43/223
f 191/38/224 193/39/224 192/23/224 189/22/224
f 193/44/225 196/40/225 195/19/225 194/18/225
f 196/9/226 199/12/226 198/8/226 197/7/226
f 199/41/227 191/45/227 190/4/227 200/3/227
f 179/31/228 190/31/228 189/22/228 177/21/228
f 194/18/229 181/17/229 180/20/229 192/23/229
f 183/5/230 198/8/230 200/3/230 184/2/230
f 197/7/231 187/6/231 186/16/231 195/19/231
f 176/46/232 185/43/232 178/42/232
f 204/1/233 209/2/233 225/3/233 215/4/233
f 208/5/234 212/6/234 222/7/234 223/8/234
f 221/9/235 218/10/235 216/11/235 224/12/235
f 201/13/236 203/14/236 207/15/236
f 211/16/237 206/17/237 219/18/237 220/19/237
f 205/20/238 202/21/238 214/22/238 217/23/238
f 201/24/239 207/25/239 213/26/239
f 201/27/240 213/28/240 210/29/240
f 202/21/241 203/30/241 204/31/241
f 205/20/242 206/32/242 207/33/242
f 208/34/243 209/2/243 210/35/243
f 211/16/244 212/36/244 213/37/244
f 214/22/245 215/31/245 216/38/245
f 217/23/246 218/39/246 219/32/246
f 220/19/247 221/40/247 222/36/247
f 223/34/248 224/41/248 225/3/248
f 202/21/249 205/20/249 207/15/249 203/14/249
f 206/17/250 211/16/250 213/26/250 207/25/250
f 212/6/251 208/5/251 210/29/251 213/28/251
f 209/2/252 204/1/252 203/42/252 210/43/252
f 216/38/253 218/39/253 217/23/253 214/22/253
f 218/44/254 221/40/254 220/19/254 219/18/254
f 221/9/255 224/12/255 223/8/255 222/7/255
f 224/41/256 216/45/256 215/4/256 225/3/256
f 204/31/257 215/31/257 214/22/257 202/21/257
f 219/18/258 206/17/258 205/20/258 217/23/258
f 208/5/259 223/8/259 225/3/259 209/2/259
f 222/7/260 212/6/260 211/16/260 220/19/260
f 201/46/261 210/43/261 203/42/261
f 229/1/262 234/2/262 250/3/262 240/4/262
f 233/5/263 237/6/263 247/7/263 248/8/263
f 246/9/264 243/10/264 241/11/264 249/12/264
f 226/13/265 228/14/265 232/15/265
f 236/16/266 231/17/266 244/18/266 245/19/266
f 230/20/267 227/21/267 239/22/267 242/23/267
f 226/24/268 232/25/268 238/26/268
f 226/27/269 238/28/269 235/29/269
f 227/21/270 228/30/270 229/31/270
f 230/20/271 231/32/271 232/33/271
f 233/34/272 234/2/272 235/35/272
f 236/16/273 237/36/273 238/37/273
f 239/22/274 240/31/274 241/38/274
f 242/23/275 243/39/275 244/32/275
f 245/19/276 246/40/276 247/36/276
f 248/34/277 249/41/277 250/3/277
f 227/21/278 230/20/278 232/15/278 228/14/278
f 231/17/279 236/16/279 238/26/279 232/25/279
f 237/6/280 233/5/280 235/29/280 238/28/280
f 234/2/281 229/1/281 228/42/281 235/43/281
f 241/38/282 243/39/282 242/23/282 239/22/282
f 243/44/283 246/40/283 245/19/283 244/18/283
f 246/9/284 249/12/284 248/8/284 247/7/284
f 249/41/285 241/45/285 240/4/285 250/3/285
f 229/31/286 240/31/286 239/22/286 227/21/286
f 244/18/287 231/17/287 230/20/287 242/23/287
f 233/5/288 248/8/288 250/3/288 234/2/288
f 247/7/289 237/6/289 236/16/289 245/19/289
f 226/46/290 235/43/290 228/42/290
f 254/1/291 265/4/291 275/3/291 259/2/291
f 258/5/292 273/8/292 272/7/292 262/6/292
f 271/9/293 274/12/293 266/11/293 268/10/293
f 251/13/294 257/15/294 253/14/294
f 261/16/295 270/19/295 269/18/295 256/17/295
f 255/20/296 267/23/296 264/22/296 252/21/296
f 251/24/297 263/26/297 257/25/297
f 251/27/298 260/29/298 263/28/298
f 252/21/299 254/31/299 253/30/299
f 255/20/300 257/33/300 256/32/300
f 258/34/301 260/35/301 259/2/301
f 261/16/302 263/37/302 262/36/302
f 264/22/303 266/38/303 265/31/303
f 267/23/304 269/32/304 268/39/304
f 270/19/305 272/36/305 271/40/305
f 273/34/306 275/3/306 274/41/306
f 252/21/307 253/14/307 257/15/307 255/20/307
f 256/17/308 257/25/308 263/26/308 261/16/308
f 262/6/309 263/28/309 260/29/309 258/5/309
f 259/2/310 260/43/310 253/42/310 254/1/310
f 266/38/311 264/22/311 267/23/311 268/39/311
f 268/44/312 269/18/312 270/19/312 271/40/312
f 271/9/313 272/7/313 273/8/313 274/12/313
f 274/41/314 275/3/314 265/4/314 266/45/314
f 254/31/315 252/21/315 264/22/315 265/31/315
f 269/18/316 267/23/316 255/20/316 256/17/316
f 258/5/317 259/2/317 275/3/317 273/8/317
f 272/7/318 270/19/318 261/16/318 262/6/318
f 251/46/319 253/42/319 260/43/319
f 279/1/320 290/4/320 300/3/320 284/2/320
f 283/5/321 298/8/321 297/7/321 287/6/321
f 296/9/322 299/12/322 291/11/322 293/10/322
f 276/13/323 282/15/323 278/14/323
f 286/16/324 295/19/324 294/18/324 281/17/324
f 280/20/325 292/23/325 289/22/325 277/21/325
f 276/24/326 288/26/326 282/25/326
f 276/27/327 285/29/327 288/28/327
f 277/21/328 279/31/328 278/30/328
f 280/20/329 282/33/329 281/32/329
f 283/34/330 285/35/330 284/2/330
f 286/16/331 288/37/331 287/36/331
f 289/22/332 291/38/332 290/31/332
f 292/23/333 294/32/333 293/39/333
f 295/19/334 297/36/334 296/40/334
f 298/34/335 300/3/335 299/41/335
f 277/21/336 278/14/336 282/15/336 280/20/336
f 281/17/337 282/25/337 288/26/337 286/16/337
f 287/6/338 288/28/338 285/29/338 283/5/338
f 284/2/339 285/43/339 278/42/339 279/1/339
f 291/38/340 289/22/340 292/23/340 293/39/340
f 293/44/341 294/18/341 295/19/341 296/40/341
f 296/9/342 297/7/342 298/8/342 299/12/342
f 299/41/343 300/3/343 290/4/343 291/45/343
f 279/31/344 277/21/344 289/22/344 290/31/344
f 294/18/345 292/23/345 280/20/345 281/17/345
f 283/5/346 284/2/346 300/3/346 298/8/346
f 297/7/347 295/19/347 286/16/347 287/6/347
f 276/46/348 278/42/348 285/43/348
f 304/1/349 315/4/349 325/3/349 309/2/349
f 308/5/350 323/8/350 322/7/350 312/6/350
f 321/9/351 324/12/351 316/11/351 318/10/351
f 301/13/352 307/15/352 303/14/352
f 311/16/353 320/19/353 319/18/353 306/17/353
f 305/20/354 317/23/354 314/22/354 302/21/354
f 301/24/355 313/26/355 307/25/355
f 301/27/356 310/29/356 313/28/356
f 302/21/357 304/31/357 303/30/357
f 305/20/358 307/33/358 306/32/358
f 308/34/359 310/35/359 309/2/359
f 311/16/360 313/37/360 312/36/360
f 314/22/361 316/38/361 315/31/361
f 317/23/362 319/32/362 318/39/362
f 320/19/363 322/36/363 321/40/363
f 323/34/364 325/3/364 324/41/364
f 302/21/365 303/14/365 307/15/365 305/20/365
f 306/17/366 307/25/366 313/26/366 311/16/366
f 312/6/367 313/28/367 310/29/367 308/5/367
f 309/2/368 310/43/368 303/42/368 304/1/368
f 316/38/369 314/22/369 317/23/369 318/39/369
f 318/44/370 319/18/370 320/19/370 321/40/370
f 321/9/371 322/7/371 323/8/371 324/12/371
f 324/41/372 325/3/372 315/4/372 316/45/372
f 304/31/373 302/21/373 314/22/373 315/31/373
f 319/18/374 317/23/374 305/20/374 306/17/374
f 308/5/375 309/2/375 325/3/375 323/8/375
f 322/7/376 320/19/376 311/16/376 312/6/376
f 301/46/377 303/42/377 310/43/377
f 329/1/378 340/4/378 350/3/378 334/2/378
f 333/5/379 348/8/379 347/7/379 337/6/379
f 346/9/380 349/12/380 341/11/380 343/10/380
f 326/13/381 332/15/381 328/14/381
f 336/16/382 345/19/382 344/18/382 331/17/382
f 330/20/383 342/23/383 339/22/383 327/21/383
f 326/24/384 338/26/384 332/25/384
f 326/27/385 335/29/385 338/28/385
f 327/21/386 329/31/386 328/30/386
f 330/20/387 332/33/387 331/32/387
f 333/34/388 335/35/388 334/2/388
f 336/16/389 338/37/389 337/36/389
f 339/22/390 341/38/390 340/31/390
f 342/23/391 344/32/391 343/39/391
f 345/19/392 347/36/392 346/40/392
f 348/34/393 350/3/393 349/41/393
f 327/21/394 328/14/394 332/15/394 330/20/394
f 331/17/395 332/25/395 338/26/395 336/16/395
f 337/6/396 338/28/396 335/29/396 333/5/396
f 334/2/397 335/43/397 328/42/397 329/1/397
f 341/38/398 339/22/398 342/23/398 343/39/398
f 343/44/399 344/18/399 345/19/399 346/40/399
f 346/9/400 347/7/400 348/8/400 349/12/400
f 349/41/401 350/3/401 340/4/401 341/45/401
f 329/31/402 327/21/402 339/22/402 340/31/402
f 344/18/403 342/23/403 330/20/403 331/17/403
f 333/5/404 334/2/404 350/3/404 348/8/404
f 347/7/405 345/19/405 336/16/405 337/6/405
f 326/46/406 328/42/406 335/43/406
f 354/1/407 365/4/407 375/3/407 359/2/407
f 358/5/408 373/8/408 372/7/408 362/6/408
f 371/9/409 374/12/409 366/11/409 368/10/409
f 351/13/410 357/15/410 353/14/410
f 361/16/411 370/19/411 369/18/411 356/17/411
f 355/20/412 367/23/412 364/22/412 352/21/412
f 351/24/413 363/26/413 357/25/413
f 351/27/414 360/29/414 363/28/414
f 352/21/415 354/31/415 353/30/415
f 355/20/416 357/33/416 356/32/416
f 358/34/417 360/35/417 359/2/417
f 361/16/418 363/37/418 362/36/418
f 364/22/419 366/38/419 365/31/419
f 367/23/420 369/32/420 368/39/420
f 370/19/421 372/36/421 371/40/421
f 373/34/422 375/3/422 374/41/422
f 352/21/423 353/14/423 357/15/423 355/20/423
f 356/17/424 357/25/424 363/26/424 361/16/424
f 362/6/425 363/28/425 360/29/425 358/5/425
f 359/2/426 360/43/426 353/42/426 354/1/426
f 366/38/427 364/22/427 367/23/427 368/39/427
f 368/44/428 369/18/428 370/19/428 371/40/428
f 371/9/429 372/7/429 373/8/429 374/12/429
f 374/41/430 375/3/430 365/4/430 366/45/430
f 354/31/431 352/21/431 364/22/431 365/31/431
f 369/18/432 367/23/432 355/20/432 356/17/432
f 358/5/433 359/2/433 375/3/433 373/8/433
f 372/7/434 370/19/434 361/16/434 362/6/434
f 351/46/435 353/42/435 360/43/435
f 379/1/436 390/4/436 400/3/436 384/2/436
f 383/5/437 398/8/437 397/7/437 387/6/437
f 396/9/438 399/12/438 391/11/438 393/10/438
f 376/13/439 382/15/439 378/14/439
f 386/16/440 395/19/440 394/18/440 381/17/440
f 380/20/441 392/23/441 389/22/441 377/21/441
f 376/24/442 388/26/442 382/25/442
f 376/27/443 385/29/443 388/28/443
f 377/21/444 379/31/444 378/30/444
f 380/20/445 382/33/445 381/32/445
f 383/34/446 385/35/446 384/2/446
f 386/16/447 388/37/447 387/36/447
f 389/22/448 391/38/448 390/31/448
f 392/23/449 394/32/449 393/39/449
f 395/19/450 397/36/450 396/40/450
f 398/34/451 400/3/451 399/41/451
f 377/21/452 378/14/452 382/15/452 380/20/452
f 381/17/453 382/25/453 388/26/453 386/16/453
f 387/6/454 388/28/454 385/29/454 383/5/454
f 384/2/455 385/43/455 378/42/455 379/1/455
f 391/38/456 389/22/456 392/23/456 393/39/456
f 393/44/457 394/18/457 395/19/457 396/40/457
f 396/9/458 397/7/458 398/8/458 399/12/458
f 399/41/459 400/3/459 390/4/459 391/45/459
f 379/31/460 377/21/460 389/22/460 390/31/460
f 394/18/461 392/23/461 380/20/461 381/17/461
f 383/5/462 384/2/462 400/3/462 398/8/462
f 397/7/463 395/19/463 386/16/463 387/6/463
f 376/46/464 378/42/464 385/43/464
f 404/1/465 415/4/465 425/3/465 409/2/465
f 408/5/466 423/8/466 422/7/466 412/6/466
f 421/9/467 424/12/467 416/11/467 418/10/467
f 401/13/468 407/15/468 403/14/468
f 411/16/469 420/19/469 419/18/469 406/17/469
f 405/20/470 417/23/470 414/22/470 402/21/470
f 401/24/471 413/26/471 407/25/471
f 401/27/472 410/29/472 413/28/472
f 402/21/473 404/31/473 403/30/473
f 405/20/474 407/33/474 406/32/474
f 408/34/475 410/35/475 409/2/475
f 411/16/476 413/37/476 412/36/476
f 414/22/477 416/38/477 415/31/477
f 417/23/478 419/32/478 418/39/478
f 420/19/479 422/36/479 421/40/479
f 423/34/480 425/3/480 424/41/480
f 402/21/481 403/14/481 407/15/481 405/20/481
f 406/17/482 407/25/482 413/26/482 411/16/482
f 412/6/483 413/28/483 410/29/483 408/5/483
f 409/2/484 410/43/484 403/42/484 404/1/484
f 416/38/485 414/22/485 417/23/485 418/39/485
f 418/44/486 419/18/486 420/19/486 421/40/486
f 421/9/487 422/7/487 423/8/487 424/12/487
f 424/41/488 425/3/488 415/4/488 416/45/488
f 404/31/489 402/21/489 414/22/489 415/31/489
f 419/18/490 417/23/490 405/20/490 406/17/490
f 408/5/491 409/2/491 425/3/491 423/8/491
f 422/7/492 420/19/492 411/16/492 412/6/492
f 401/46/493 403/42/493 410/43/493
f 429/1/494 440/4/494 450/3/494 434/2/494
f 433/5/495 448/8/495 447/7/495 437/6/495
f 446/9/496 449/12/496 441/11/496 443/10/496
f 426/13/497 432/15/497 428/14/497
f 436/16/498 445/19/498 444/18/498 431/17/498
f 430/20/499 442/23/499 439/22/499 427/21/499
f 426/24/500 438/26/500 432/25/500
f 426/27/501 435/29/501 438/28/501
f 427/21/502 429/31/502 428/30/502
f 430/20/503 432/33/503 431/32/503
f 433/34/504 435/35/504 434/2/504
f 436/16/505 438/37/505 437/36/505
f 439/22/506 441/38/506 440/31/506
f 442/23/507 444/32/507 443/39/507
f 445/19/508 447/36/508 446/40/508
f 448/34/509 450/3/509 449/41/509
f 427/21/510 428/14/510 432/15/510 430/20/510
f 431/17/511 432/25/511 438/26/511 436/16/511
f 437/6/512 438/28/512 435/29/512 433/5/512
f 434/2/513 435/43/513 428/42/513 429/1/513
f 441/38/514 439/22/514 442/23/514 443/39/514
f 443/44/515 444/18/515 445/19/515 446/40/515
f 446/9/516 447/7/516 448/8/516 449/12/516
f 449/41/517 450/3/517 440/4/517 441/45/517
f 429/31/518 427/21/518 439/22/518 440/31/518
f 444/18/519 442/23/519 430/20/519 431/17/519
f 433/5/520 434/2/520 450/3/520 448/8/520
f 447/7/521 445/19/521 436/16/521 437/6/521
f 426/46/522 428/42/522 435/43/522
f 454/1/523 465/4/523 475/3/523 459/2/523
f 458/5/524 473/8/524 472/7/524 462/6/524
f 471/9/525 474/12/525 466/11/525 468/10/525
f 451/13/526 457/15/526 453/14/526
f 461/16/527 470/19/527 469/18/527 456/17/527
f 455/20/528 467/23/528 464/22/528 452/21/528
f 451/24/529 463/26/529 457/25/529
f 451/27/530 460/29/530 463/28/530
f 452/21/531 454/31/531 453/30/531
f 455/20/532 457/33/532 456/32/532
f 458/34/533 460/35/533 459/2/533
f 461/16/534 463/37/534 462/36/534
f 464/22/535 466/38/535 465/31/535
f 467/23/536 469/32/536 468/39/536
f 470/19/537 472/36/537 471/40/537
f 473/34/538 475/3/538 474/41/538
f 452/21/539 453/14/539 457/15/539 455/20/539
f 456/17/540 457/25/540 463/26/540 461/16/540
f 462/6/541 463/28/541 460/29/541 458/5/541
f 459/2/542 460/43/542 453/42/542 454/1/542
f 466/38/543 464/22/543 467/23/543 468/39/543
f 468/44/544 469/18/544 470/19/544 471/40/544
f 471/9/545 472/7/545 473/8/545 474/12/545
f 474/41/546 475/3/546 465/4/546 466/45/546
f 454/31/547 452/21/547 464/22/547 465/31/547
f 469/18/548 467/23/548 455/20/548 456/17/548
f 458/5/549 459/2/549 475/3/549 473/8/549
f 472/7/550 470/19/550 461/16/550 462/6/550
f 451/46/551 453/42/551 460/43/551
f 479/1/552 490/4/552 500/3/552 484/2/552
f 483/5/553 498/8/553 497/7/553 487/6/553
f 496/9/554 499/12/554 491/11/554 493/10/554
f 476/13/555 482/15/555 478/14/555
f 486/16/556 495/19/556 494/18/556 481/17/556
f 480/20/557 492/23/557 489/22/557 477/21/557
f 476/24/558 488/26/558 482/25/558
f 476/27/559 485/29/559 488/28/559
f 477/21/560 479/31/560 478/30/560
f 480/20/561 482/33/561 481/32/561
f 483/34/562 485/35/562 484/2/562
f 486/16/563 488/37/563 487/36/563
f 489/22/564 491/38/564 490/31/564
f 492/23/565 494/32/565 493/39/565
f 495/19/566 497/36/566 496/40/566
f 498/34/567 500/3/567 499/41/567
f 477/21/568 478/14/568 482/15/568 480/20/568
f 481/17/569 482/25/569 488/26/569 486/16/569
f 487/6/570 488/28/570 485/29/570 483/5/570
f 484/2/571 485/43/571 478/42/571 479/1/571
f 491/38/572 489/22/572 492/23/572 493/39/572
f 493/44/573 494/18/573 495/19/573 496/40/573
f 496/9/574 497/7/574 498/8/574 499/12/574
f 499/41/575 500/3/575 490/4/575 491/45/575
f 479/31/576 477/21/576 489/22/576 490/31/576
f 494/18/577 492/23/577 480/20/577 481/17/577
f 483/5/578 484/2/578 500/3/578 498/8/578
f 497/7/579 495/19/579 486/16/579 487/6/579
f 476/46/580 478/42/580 485/43/580
