# Blender 4.4.0
# www.blender.org
mtllib 星.mtl
o 立方体
v -0.441765 -0.441765 0.441765
v -0.441765 0.441765 0.441765
v -0.441765 -0.441765 -0.441765
v -0.441765 0.441765 -0.441765
v 0.441765 -0.441765 0.441765
v 0.441765 0.441765 0.441765
v 0.441765 -0.441765 -0.441765
v 0.441765 0.441765 -0.441765
v -0.441765 -0.441765 0.000000
v -0.441765 0.000000 0.441765
v -0.441765 0.441765 0.000000
v -0.441765 0.000000 -0.441765
v 0.000000 -0.441765 -0.441765
v 0.000000 0.441765 -0.441765
v 0.441765 0.000000 -0.441765
v 0.441765 -0.441765 0.000000
v 0.441765 0.441765 0.000000
v 0.441765 0.000000 0.441765
v 0.000000 -0.441765 0.441765
v 0.000000 0.441765 0.441765
v 0.000000 1.894750 0.000000
v 0.000000 -1.873733 0.000000
v 0.000000 0.000000 2.220026
v 1.765540 0.000000 0.000000
v 0.000000 0.000000 -2.185583
v -1.759175 0.000000 0.000000
vn -0.4285 0.6389 -0.6389
vn 0.6657 0.6657 -0.3373
vn 0.4268 0.6395 0.6395
vn -0.6671 0.6671 0.3315
vn 0.6481 -0.3999 0.6481
vn -0.6496 0.3950 0.6496
vn 0.6496 0.3950 0.6496
vn 0.6496 0.3950 -0.6496
vn -0.6496 0.3950 -0.6496
vn -0.6481 -0.3999 0.6481
vn -0.6481 -0.3999 -0.6481
vn 0.6481 -0.3999 -0.6481
vn -0.6671 -0.6671 0.3315
vn 0.6671 -0.6671 0.3315
vn 0.6671 0.6671 0.3315
vn 0.4268 -0.6395 0.6395
vn 0.4268 -0.6395 -0.6395
vn 0.4268 0.6395 -0.6395
vn 0.6657 -0.6657 -0.3373
vn -0.6657 -0.6657 -0.3373
vn -0.6657 0.6657 -0.3373
vn -0.4285 -0.6389 -0.6389
vn -0.4285 -0.6389 0.6389
vn -0.4285 0.6389 0.6389
vt 0.500000 0.125000
vt 0.625000 0.125000
vt 0.625000 0.250000
vt 0.500000 0.250000
vt 0.500000 0.375000
vt 0.625000 0.375000
vt 0.625000 0.500000
vt 0.500000 0.500000
vt 0.500000 0.625000
vt 0.625000 0.625000
vt 0.625000 0.750000
vt 0.500000 0.750000
vt 0.500000 0.875000
vt 0.625000 0.875000
vt 0.625000 1.000000
vt 0.500000 1.000000
vt 0.250000 0.625000
vt 0.375000 0.625000
vt 0.375000 0.750000
vt 0.250000 0.750000
vt 0.750000 0.625000
vt 0.875000 0.625000
vt 0.875000 0.750000
vt 0.750000 0.750000
vt 0.750000 0.500000
vt 0.875000 0.500000
vt 0.125000 0.625000
vt 0.125000 0.750000
vt 0.125000 0.500000
vt 0.250000 0.500000
vt 0.375000 0.500000
vt 0.375000 0.875000
vt 0.375000 1.000000
vt 0.375000 0.375000
vt 0.375000 0.250000
vt 0.375000 0.125000
vt 0.375000 0.000000
vt 0.500000 0.000000
vt 0.625000 0.000000
s 0
f 26/1/1 11/2/1 4/3/1 12/4/1
f 25/5/2 14/6/2 8/7/2 15/8/2
f 24/9/3 17/10/3 6/11/3 18/12/3
f 23/13/4 20/14/4 2/15/4 10/16/4
f 22/17/5 16/18/5 5/19/5 19/20/5
f 21/21/6 11/22/6 2/23/6 20/24/6
f 17/10/7 21/21/7 20/24/7 6/11/7
f 8/7/8 14/25/8 21/21/8 17/10/8
f 14/25/9 4/26/9 11/22/9 21/21/9
f 9/27/10 22/17/10 19/20/10 1/28/10
f 3/29/11 13/30/11 22/17/11 9/27/11
f 13/30/12 7/31/12 16/18/12 22/17/12
f 19/32/13 23/13/13 10/16/13 1/33/13
f 5/19/14 18/12/14 23/13/14 19/32/14
f 18/12/15 6/11/15 20/14/15 23/13/15
f 16/18/16 24/9/16 18/12/16 5/19/16
f 7/31/17 15/8/17 24/9/17 16/18/17
f 15/8/18 8/7/18 17/10/18 24/9/18
f 13/34/19 25/5/19 15/8/19 7/31/19
f 3/35/20 12/4/20 25/5/20 13/34/20
f 12/4/21 4/3/21 14/6/21 25/5/21
f 9/36/22 26/1/22 12/4/22 3/35/22
f 1/37/23 10/38/23 26/1/23 9/36/23
f 10/38/24 2/39/24 11/2/24 26/1/24
